<mxfile host="app.diagrams.net" modified="2021-03-12T10:19:15.808Z" agent="5.0 (Windows NT 10.0; Win64; x64) AppleWebKit/537.36 (KHTML, like Gecko) Chrome/88.0.4324.190 Safari/537.36" etag="pWVua5A4UfifC4MEZEdw" version="14.4.2" type="github">
  <diagram id="zt5hl2aVMOqursFLxJ3T" name="第 1 页">
    <mxGraphModel dx="1185" dy="620" grid="1" gridSize="10" guides="1" tooltips="1" connect="1" arrows="1" fold="1" page="1" pageScale="1" pageWidth="827" pageHeight="1169" math="0" shadow="0">
      <root>
        <mxCell id="0" />
        <mxCell id="1" parent="0" />
        <mxCell id="QVjNYzSkNJbPLTkImdrc-2" value="" style="shape=image;imageAspect=0;aspect=fixed;verticalLabelPosition=bottom;verticalAlign=top;image=data:image/jpeg,/9j/4AAQSkZJRgABAQEAYABgAAD/4St8RXhpZgAATU0AKgAAAAgACAALAAIAAAAmAAAIegESAAMAAAABAAEAAAExAAIAAAAmAAAIoAEyAAIAAAAUAAAIxgE7AAIAAAAHAAAI2odpAAQAAAABAAAI4pydAAEAAAAOAAARZuocAAcAAAgMAAAAbgAAEXQc6gAAAAgAAAAAAAAAAAAAAAAAAAAAAAAAAAAAAAAAAAAAAAAAAAAAAAAAAAAAAAAAAAAAAAAAAAAAAAAAAAAAAAAAAAAAAAAAAAAAAAAAAAAAAAAAAAAAAAAAAAAAAAAAAAAAAAAAAAAAAAAAAAAAAAAAAAAAAAAAAAAAAAAAAAAAAAAAAAAAAAAAAAAAAAAAAAAAAAAAAAAAAAAAAAAAAAAAAAAAAAAAAAAAAAAAAAAAAAAAAAAAAAAAAAAAAAAAAAAAAAAAAAAAAAAAAAAAAAAAAAAAAAAAAAAAAAAAAAAAAAAAAAAAAAAAAAAAAAAAAAAAAAAAAAAAAAAAAAAAAAAAAAAAAAAAAAAAAAAAAAAAAAAAAAAAAAAAAAAAAAAAAAAAAAAAAAAAAAAAAAAAAAAAAAAAAAAAAAAAAAAAAAAAAAAAAAAAAAAAAAAAAAAAAAAAAAAAAAAAAAAAAAAAAAAAAAAAAAAAAAAAAAAAAAAAAAAAAAAAAAAAAAAAAAAAAAAAAAAAAAAAAAAAAAAAAAAAAAAAAAAAAAAAAAAAAAAAAAAAAAAAAAAAAAAAAAAAAAAAAAAAAAAAAAAAAAAAAAAAAAAAAAAAAAAAAAAAAAAAAAAAAAAAAAAAAAAAAAAAAAAAAAAAAAAAAAAAAAAAAAAAAAAAAAAAAAAAAAAAAAAAAAAAAAAAAAAAAAAAAAAAAAAAAAAAAAAAAAAAAAAAAAAAAAAAAAAAAAAAAAAAAAAAAAAAAAAAAAAAAAAAAAAAAAAAAAAAAAAAAAAAAAAAAAAAAAAAAAAAAAAAAAAAAAAAAAAAAAAAAAAAAAAAAAAAAAAAAAAAAAAAAAAAAAAAAAAAAAAAAAAAAAAAAAAAAAAAAAAAAAAAAAAAAAAAAAAAAAAAAAAAAAAAAAAAAAAAAAAAAAAAAAAAAAAAAAAAAAAAAAAAAAAAAAAAAAAAAAAAAAAAAAAAAAAAAAAAAAAAAAAAAAAAAAAAAAAAAAAAAAAAAAAAAAAAAAAAAAAAAAAAAAAAAAAAAAAAAAAAAAAAAAAAAAAAAAAAAAAAAAAAAAAAAAAAAAAAAAAAAAAAAAAAAAAAAAAAAAAAAAAAAAAAAAAAAAAAAAAAAAAAAAAAAAAAAAAAAAAAAAAAAAAAAAAAAAAAAAAAAAAAAAAAAAAAAAAAAAAAAAAAAAAAAAAAAAAAAAAAAAAAAAAAAAAAAAAAAAAAAAAAAAAAAAAAAAAAAAAAAAAAAAAAAAAAAAAAAAAAAAAAAAAAAAAAAAAAAAAAAAAAAAAAAAAAAAAAAAAAAAAAAAAAAAAAAAAAAAAAAAAAAAAAAAAAAAAAAAAAAAAAAAAAAAAAAAAAAAAAAAAAAAAAAAAAAAAAAAAAAAAAAAAAAAAAAAAAAAAAAAAAAAAAAAAAAAAAAAAAAAAAAAAAAAAAAAAAAAAAAAAAAAAAAAAAAAAAAAAAAAAAAAAAAAAAAAAAAAAAAAAAAAAAAAAAAAAAAAAAAAAAAAAAAAAAAAAAAAAAAAAAAAAAAAAAAAAAAAAAAAAAAAAAAAAAAAAAAAAAAAAAAAAAAAAAAAAAAAAAAAAAAAAAAAAAAAAAAAAAAAAAAAAAAAAAAAAAAAAAAAAAAAAAAAAAAAAAAAAAAAAAAAAAAAAAAAAAAAAAAAAAAAAAAAAAAAAAAAAAAAAAAAAAAAAAAAAAAAAAAAAAAAAAAAAAAAAAAAAAAAAAAAAAAAAAAAAAAAAAAAAAAAAAAAAAAAAAAAAAAAAAAAAAAAAAAAAAAAAAAAAAAAAAAAAAAAAAAAAAAAAAAAAAAAAAAAAAAAAAAAAAAAAAAAAAAAAAAAAAAAAAAAAAAAAAAAAAAAAAAAAAAAAAAAAAAAAAAAAAAAAAAAAAAAAAAAAAAAAAAAAAAAAAAAAAAAAAAAAAAAAAAAAAAAAAAAAAAAAAAAAAAAAAAAAAAAAAAAAAAAAAAAAAAAAAAAAAAAAAAAAAAAAAAAAAAAAAAAAAAAAAAAAAAAAAAAAAAAAAAAAAAAAAAAAAAAAAAAAAAAAAAAAAAAAAAAAAAAAAAAAAAAAAAAAAAAAAAAAAAAAAAAAAAAAAAAAAAAAAAAAAAAAAAAAAAAAAAAAAAAAAAAAAAAAAAAAAAAAAAAAAAAAAAAAAAAAAAAAAAAAAAAAAAAAAAAAAAAAAAAAAAAAAAAAAAAAAAAAAAAAAAAAAAAAAAAAAAAAAAAAAAAAAAAAAAAAAAAAAAAAAAAAAAAAAAAAAAAAAAAAAAAAAAAAAAAAAAAAAAAAAAAAAAAAAAAAAAAAAAAAAAAAAAAAAAAAAAAAAAAAAAAAAAAAAAAAAAAAAAAAAAAAAAAAAAAAAAAAAAAAAAAAAAAAAAAAAAAAAAAAAAAAAAAAAAAAAAAAAAAAAAAAAAAAAAAAAAAAAAAAAAAAAAAAAAAAAAAAAAAAAAAAAAAAAAAAAAAAAAAAAAAAAAAAAAAAAAAAAAAAAAAAAAAAAAAAAAAAAAAAAAAAAAAAAAAAAAAAAAAAAAAAAAAAAAAAAAAAAAAAAAAAAAAAAAAAAAAAAAAAAAAAAAAAAAAAAAAAAAAAAAAAAAAAAAAAAAAAAAAAAAAAAAAAAAAAAAAAAAAAAAAAAAAAAAAAAAAAAAAAAAAAAAAAAAAAAAAAAAAAAAAAAAAAAAAAAAAAAAAAAAAAAAAAAAAAAAAAAAAAAAAAAAAAAAAAAAAAAAAAAAAAAAAAAAAAAAAAAAAAAAFdpbmRvd3MgUGhvdG8gRWRpdG9yIDEwLjAuMTAwMTEuMTYzODQAV2luZG93cyBQaG90byBFZGl0b3IgMTAuMC4xMDAxMS4xNjM4NAAyMDIxOjAzOjEyIDE4OjE2OjA4AHpqMTk5NgAAAAaQAwACAAAAFAAAETyQBAACAAAAFAAAEVCSkQACAAAAAzM1AACSkgACAAAAAzM1AACgAQADAAAAAQABAADqHAAHAAAIDAAACTAAAAAAHOoAAAAIAAAAAAAAAAAAAAAAAAAAAAAAAAAAAAAAAAAAAAAAAAAAAAAAAAAAAAAAAAAAAAAAAAAAAAAAAAAAAAAAAAAAAAAAAAAAAAAAAAAAAAAAAAAAAAAAAAAAAAAAAAAAAAAAAAAAAAAAAAAAAAAAAAAAAAAAAAAAAAAAAAAAAAAAAAAAAAAAAAAAAAAAAAAAAAAAAAAAAAAAAAAAAAAAAAAAAAAAAAAAAAAAAAAAAAAAAAAAAAAAAAAAAAAAAAAAAAAAAAAAAAAAAAAAAAAAAAAAAAAAAAAAAAAAAAAAAAAAAAAAAAAAAAAAAAAAAAAAAAAAAAAAAAAAAAAAAAAAAAAAAAAAAAAAAAAAAAAAAAAAAAAAAAAAAAAAAAAAAAAAAAAAAAAAAAAAAAAAAAAAAAAAAAAAAAAAAAAAAAAAAAAAAAAAAAAAAAAAAAAAAAAAAAAAAAAAAAAAAAAAAAAAAAAAAAAAAAAAAAAAAAAAAAAAAAAAAAAAAAAAAAAAAAAAAAAAAAAAAAAAAAAAAAAAAAAAAAAAAAAAAAAAAAAAAAAAAAAAAAAAAAAAAAAAAAAAAAAAAAAAAAAAAAAAAAAAAAAAAAAAAAAAAAAAAAAAAAAAAAAAAAAAAAAAAAAAAAAAAAAAAAAAAAAAAAAAAAAAAAAAAAAAAAAAAAAAAAAAAAAAAAAAAAAAAAAAAAAAAAAAAAAAAAAAAAAAAAAAAAAAAAAAAAAAAAAAAAAAAAAAAAAAAAAAAAAAAAAAAAAAAAAAAAAAAAAAAAAAAAAAAAAAAAAAAAAAAAAAAAAAAAAAAAAAAAAAAAAAAAAAAAAAAAAAAAAAAAAAAAAAAAAAAAAAAAAAAAAAAAAAAAAAAAAAAAAAAAAAAAAAAAAAAAAAAAAAAAAAAAAAAAAAAAAAAAAAAAAAAAAAAAAAAAAAAAAAAAAAAAAAAAAAAAAAAAAAAAAAAAAAAAAAAAAAAAAAAAAAAAAAAAAAAAAAAAAAAAAAAAAAAAAAAAAAAAAAAAAAAAAAAAAAAAAAAAAAAAAAAAAAAAAAAAAAAAAAAAAAAAAAAAAAAAAAAAAAAAAAAAAAAAAAAAAAAAAAAAAAAAAAAAAAAAAAAAAAAAAAAAAAAAAAAAAAAAAAAAAAAAAAAAAAAAAAAAAAAAAAAAAAAAAAAAAAAAAAAAAAAAAAAAAAAAAAAAAAAAAAAAAAAAAAAAAAAAAAAAAAAAAAAAAAAAAAAAAAAAAAAAAAAAAAAAAAAAAAAAAAAAAAAAAAAAAAAAAAAAAAAAAAAAAAAAAAAAAAAAAAAAAAAAAAAAAAAAAAAAAAAAAAAAAAAAAAAAAAAAAAAAAAAAAAAAAAAAAAAAAAAAAAAAAAAAAAAAAAAAAAAAAAAAAAAAAAAAAAAAAAAAAAAAAAAAAAAAAAAAAAAAAAAAAAAAAAAAAAAAAAAAAAAAAAAAAAAAAAAAAAAAAAAAAAAAAAAAAAAAAAAAAAAAAAAAAAAAAAAAAAAAAAAAAAAAAAAAAAAAAAAAAAAAAAAAAAAAAAAAAAAAAAAAAAAAAAAAAAAAAAAAAAAAAAAAAAAAAAAAAAAAAAAAAAAAAAAAAAAAAAAAAAAAAAAAAAAAAAAAAAAAAAAAAAAAAAAAAAAAAAAAAAAAAAAAAAAAAAAAAAAAAAAAAAAAAAAAAAAAAAAAAAAAAAAAAAAAAAAAAAAAAAAAAAAAAAAAAAAAAAAAAAAAAAAAAAAAAAAAAAAAAAAAAAAAAAAAAAAAAAAAAAAAAAAAAAAAAAAAAAAAAAAAAAAAAAAAAAAAAAAAAAAAAAAAAAAAAAAAAAAAAAAAAAAAAAAAAAAAAAAAAAAAAAAAAAAAAAAAAAAAAAAAAAAAAAAAAAAAAAAAAAAAAAAAAAAAAAAAAAAAAAAAAAAAAAAAAAAAAAAAAAAAAAAAAAAAAAAAAAAAAAAAAAAAAAAAAAAAAAAAAAAAAAAAAAAAAAAAAAAAAAAAAAAAAAAAAAAAAAAAAAAAAAAAAAAAAAAAAAAAAAAAAAAAAAAAAAAAAAAAAAAAAAAAAAAAAAAAAAAAAAAAAAAAAAAAAAAAAAAAAAAAAAAAAAAAAAAAAAAAAAAAAAAAAAAAAAAAAAAAAAAAAAAAAAAAAAAAAAAAAAAAAAAAAAAAAAAAAAAAAAAAAAAAAAAAAAAAAAAAAAAAAAAAAAAAAAAAAAAAAAAAAAAAAAAAAAAAAAAAAAAAAAAAAAAAAAAAAAAAAAAAAAAAAAAAAAAAAAAAAAAAAAAAAAAAAAAAAAAAAAAAAAAAAAAAAAAAAAAAAAAAAAAAAAAAAAAAAAAAAAAAAAAAAAAAAAAAAAAAAAAAAAAAAAAAAAAAAAAAAAAAAAAAAAAAAAAAAAAAAAAAAAAAAAAAAAAAAAAAAAAAAAAAAAAAAAAAAAAAAAAAAAAAAAAAAAAAAAAAAAAAAAAAAAAAAAAAAAAAAAAAAAAAAAAAAAAAAAAAAAAAAAAAAAAAAAAAAAAAAAAAAAAAAAAAAAAAAAAAAAAAAAAAAAAAAAAAAAAAAAAAAAAAAAAAAAAAAAAAAAAAAAAAAAAAAAAAAAAAAAAAAAAAAAAAAAAAAAAAAAAAAAAAAAAAAAAAAAAAAAAAAAAAAAAAAAAAAAAAAAAAAAAAAAAAAAAAAAAAAAAAAAAAAAAAAAAAAAAAAAAAAAAAAAAAAAAAAAAAAAAAAAAAAAAAAAAAAAAAAAAAAAAAAAAAAAAAAAAAAyMDIxOjAzOjEyIDE4OjEyOjA5ADIwMjE6MDM6MTIgMTg6MTI6MDkAAAB6AGoAMQA5ADkANgAAAAAGAQMAAwAAAAEABgAAARoABQAAAAEAABHCARsABQAAAAEAABHKASgAAwAAAAEAAgAAAgEABAAAAAEAABHSAgIABAAAAAEAABmiAAAAAAAAAGAAAAABAAAAYAAAAAH/2P/bAEMACAYGBwYFCAcHBwkJCAoMFA0MCwsMGRITDxQdGh8eHRocHCAkLicgIiwjHBwoNyksMDE0NDQfJzk9ODI8LjM0Mv/bAEMBCQkJDAsMGA0NGDIhHCEyMjIyMjIyMjIyMjIyMjIyMjIyMjIyMjIyMjIyMjIyMjIyMjIyMjIyMjIyMjIyMjIyMv/AABEIAKoBAAMBIQACEQEDEQH/xAAfAAABBQEBAQEBAQAAAAAAAAAAAQIDBAUGBwgJCgv/xAC1EAACAQMDAgQDBQUEBAAAAX0BAgMABBEFEiExQQYTUWEHInEUMoGRoQgjQrHBFVLR8CQzYnKCCQoWFxgZGiUmJygpKjQ1Njc4OTpDREVGR0hJSlNUVVZXWFlaY2RlZmdoaWpzdHV2d3h5eoOEhYaHiImKkpOUlZaXmJmaoqOkpaanqKmqsrO0tba3uLm6wsPExcbHyMnK0tPU1dbX2Nna4eLj5OXm5+jp6vHy8/T19vf4+fr/xAAfAQADAQEBAQEBAQEBAAAAAAAAAQIDBAUGBwgJCgv/xAC1EQACAQIEBAMEBwUEBAABAncAAQIDEQQFITEGEkFRB2FxEyIygQgUQpGhscEJIzNS8BVictEKFiQ04SXxFxgZGiYnKCkqNTY3ODk6Q0RFRkdISUpTVFVWV1hZWmNkZWZnaGlqc3R1dnd4eXqCg4SFhoeIiYqSk5SVlpeYmZqio6Slpqeoqaqys7S1tre4ubrCw8TFxsfIycrS09TV1tfY2dri4+Tl5ufo6ery8/T19vf4+fr/2gAMAwEAAhEDEQA/APX7nxPHYzyxXVpJGY0eViHDDy0VWY8fxDevHv1rWtNRsr8yi0uopzE22QRuDtPI5/EEfgaALDMqKWYgKBkk9qUEEZHQ0k1ewC0UwCigAooAijnimeRY5Fdo22OAc7TgHB9Dgj86kFCdxtNOzGyyJEheRgqjkljgClWi/QVnuOooAKKACigAooAKKACigAooAKKACigDHTwzpiMxMdxJukMh866lk5JyR8zHCnuo4PcU/wAO/wDIFj/66S/+jGoA0JoxLDJGejKV/MVDpsnmaZbMTlvLAb6jg/qKw/5fLzX6/wDBH0LdFbiCigAooA4y81CTRfEGq2VookvdREM1nEehkIKMT/sqIwx/GtzRNW+26Il1dskU0RaK5ycKkiEq/wBBkZHsRWMJ+84s9LE4dOjGqvifL91rX/8AAk0Z3j1pH8JXFtAf3108cMfvlhn9Aa3NMulvtLtLxPuzwpIPoVB/rVJ/vGvIynD/AGOEv7z/ABS/yLeaWtDiGg04dKBBRQMKKACigAooAKKACigAooAKyvDv/IEi/wCukv8A6MagDUqjp37trqAnmOdiPo3zf+zVz1NKkH6/5/oPoX6K6BBRQAUUAV3sbZ72O9aBGuY0KJIRyqnGR+lc9qPhFL+9vWlupPsF0PMezAwrTBdoZj3GAvy+ozWc6aa0OzDYyVGV2r2Vl5a3X3FK3nbVLTwnBJ80pLSTg9jFGyN+TsBWz4SBTwtZwMfmtg1s31jYof8A0Gopv3v68joxcXGi4+f6zX6Gd4Z1a6udb1KG5kL29w73FiSf4FcxsB7fKrf8DrqpZVgheWRtqIpZj6AVdOTcLswxtJQr8kPL/J/jc5zwNqNxqnhz7VdvIZmuJchzkqN5IH0AIFdMOlOk3KCbIx1ONLE1IR2TYtFWcoUUAFFABRQAUUAFFABRQAVleHf+QJF/10l/9GNQBq1nyeba6hLMttJLFKi5MZGQwz2JHYjp6Vz4jmSU0r2f/AGie2vYrlnVA6umCySIVIz06/Q1ZrSlUVSKkgYUVoIKKACkPWgDh9AgkTx1qFqcmLTxMynHH+kOsgx+TD8KvWl8dH0jxJK43fYrqeUL67lEo/PfXNBtK/mz2sRHnnyLqoP79f8A24Q6Tc6ZpGh3FrCbi50xAJYlIDSoyYkAzxnOGA9Rin6zrNtqnhedNPmDSXbpZ7OjxtIwQhlPKkAk8+lV8MXHyM0vb1I1VqlLX0vdP8WWfDca29xrdqgCpDfnao7Boo2/rXQVpBWjY4MS+aq5PrZ/egoqzAKKACigAooAKKACigAooAKyvDv/ACBIv+ukv/oxqANWkxzQBRu/9Hvra5H3WPkv+P3T+B4/4FV4VhS0nOPnf7/6Y3sLRW4gooAKQjNAFeKxt4b2e8jiVZ5wqyuOrBc7c/TJrG1PwsL+7lmjv54I7l4zdwABkmC49RkEgY4PSs5U1JWOqhipUqnO9dLfda33WR0GDWfNoenz6jDqMlpEbyE5SYDBzjHOOvXvmqcU1ZmNOrOk24O19PkU9IO3xH4hj9ZoX/OJR/St4dKIbF4n416R/wDSUFFUYBRQAUUAFFABRQAUUAFFABWV4d/5AkX/AF0l/wDRjUAatFAEN1brdW7wvkBxjI6j3HvUVhcPNCVl4niOyQe47/Qjmud+7WT7q33a/wCY+hboroEFFABRQAUUAFFAGFY/J4y1dP79rbSfrIv/ALLW7Uw2+82ru8k/JfkgoqjEKKACigAooAKKACigAooAKyvDv/IEi/66S/8AoxqANWigArPl/wBG1WOXolwvlt/vDJX9Nw/KsMRolPs1/kNdh1lqKXkroEKYG6Mn+NOm4fj/AE9avU6FZVYcyBqzCithBRQAUUAFFAGCD5fjph/z100H/vmQ/wDxdb1RHqb118PogoqzAKKACigAooAKKACigAooAKyvDv8AyBIv+ukv/oxqANWigAqveWkV7bmGYEoSDwfQ5qKlONSDhLZgiO6tS6RyW5CTQ8x56Ed1Psf8KfaXS3MZ+UpIh2yRt1U/571jH93Vt0l+a/4H5D3RLLNFAm6WRI19WbApY5UlQPGyujDIZTkGtuePNy31C3UfRViCigAooAwbj5fHFgf+elhOv5PEf61vVMd2b1ndQ9P1YUVRgFFABRQAUUAFFABRQAUUAFZXh3/kCRf9dJf/AEY1AGrRQAUUAFUb2F0kF5brmaMYdB/y0X0+vpWGIi3D3d1qvkNEMDRanem4XEkEKbYyRwWbknB9BgfialscQXV1adAreag/2W/+yDVzUnGUo1l9pv7un5DfYv0V6BIUUAFFAGBqn7vxToMv98zw/mm//wBkrfqI7v8Arojet8FP0/8AbmFFWYBRQAUUAFFABRQAUUAFFACZ96y/Dv8AyBIv+ukv/oxqANWigAooAKTFADUijiUrGiqCSSFGOT1qnfK0Msd9GpYxArIoHLIev4jGfzrnrwtT9xba/cNbj4NStbiYRRTB2IyMA4P0PQ1bzVUq8K0eaD0Bqw3zUMhjDrvAyVzyKcGBOM1amnswsLRViMHxUhi0yPUkUmTTp1uhj+6OH/8AHC1bYcMoZTkEZGKhfEzonrQg/Nr8n+rHA5pas5wooAKKACigAooAKKACigDjbyHXftF19ma42G4nMGWb75SPyv8Atnu8zI6e1bHhgTDSAZJEZDLLsCoQQPMbqcnP6ULbUHubVFABRQAUUAFJihq4FPUYm8hZoRmW3bzFHqB1H4jIqJtQN3iGwyXb70jKQsY9eep9BXBUm6dRwitZbeuz/QrceNJtPLCmMs4OTLuIkJ9dw5qB0g0e6WZQI7eVdknswyVJ/UflSqYelQSrJax/4Zgm3oSpqi/P9oia3AQyJv8A4kHU/X29xS6fdzztMlxGI5AQ6L/sN0z78H8qcMW5zjG1t7+Xb7wcbFueJJ4JIZF3I6lWHqCMGuS/4R/VdK0+C7i1O5vrywVRFAP3cckSjBQqOrEfxHPIHSuqcG/eT2OvCV4QXs5q6b37dGdPYX9vqNhDd2riSGVdykfyPofarWa0TurnJODhJxlugzzijNMkWigAooAKKACigAooASsvw7/yBYv+ukv/AKMagDVooAKKACigAooATFGKVgCkZA4wwBGc8ihq6swIp7WG5CedGH2MGXPYiql9HcpdRTWaAu6mJyTwoPIb3xz+dcuIptRc6a97QqPmLpCtFbSws7O0U7qWbqcnOf1rQxV4VWoxT1FLcwZ9Buob2a50jUvsP2g75omgEqM/94DI2k9/Xin6RrDS+bZamY4dTthmVAcCRe0iA/wn9CCO1XrB76HbJxxFNtR9+Nr+a227rT8zDtL69hvF8SzTSf2bfzeS0Ln5YYc4ikA9zkn2kH92u2BFFN2vcMbGPMnDp7r9Y6flYZ9ph37PNTf/AHdwzUm4VpdHE4yW6DPFGaYgyKNw/OgBc0UAJmloAKyvDv8AyBIv+ukv/oxqANWigAooAKKACigAooAKKACkoApWZxfX6f8ATVW/NF/wq9WND4Pm/wA2N7iGs/UtF0/V4hHf2UU6joWHK/Q9RWrimrMqnVnSmpwdmiw9nBJZGzeBDblPLMZGV24xjHpisOPwpuIt72/uLrTYj+4tHOAB6Ow5cDoM9uuTzUSp3asdFDFOknpd7ryff+vLsT3Hg/Q5bZootMtrZ8fJNBEqSRt2ZWxkEHmqE2peI9KtUnvoLM2drIqXM4Yl5oycGQKOEwDuOc9D0HNTKLg7wRtRqQxPuYiTvfTrvpr+B1W7MXBBbHHpXl9k1z4O1XW73WtNt5dT/s641CK/tJ5THcIhUuhjdjsYMV6cYPGK1bseelfQ0dE8QR6F9n/4SiIwX13YNfSahJIHUhdvmJwMoF3LhRkY75zVq91nSvEOqeEdS0m7juoP7UliE0ecZ+zTEj8wP0qmtSU/dJ18WXzaxb6aLKA3F1HctEglJWN4jgK8gBUlh1A5XoQamtPGaXHhxdZe3CRw2ctxeRbjugdCVMfTruVxn/ZNTfS4yDVfFWtaPpup3k+iK0VtHG8EvnBVkLNtKEcnK5BzjDA9q6fT3vntd2oQwRT72+WCUuu3PynJUHOMZ4pgW6yvDv8AyBIv+ukv/oxqANWigAooAKKACigAooAKKACigCjD8ur3S/3oo3/9CH9BV6saGzXm/wAxsKK2EFFABUFzbxXdrLbTrvilQo6nuCMGkxxbi00Y/h+WS50aXTZ5nF5ZM1nM68MCB8rg+pUq341JZ+G4Y4JE1G8udVkkha3Mt5sz5TY3JhFUYOBk4ycDJ4FTDWKubYlJVpcu17/fqhNN8NWunXVtcG4uLmS0gNtamcqfJiJGVBABJO1AS2T8o565TxDZ2Jew1W/1GWzj0uc3ClWQIzFCmG3KTjazDAI6/SrbtqzKEJTajFavYyLbwhb6TFaalYXepX508Ty2Vp5sQVllGTGGKjjPIJOfU44rT0zQrWXTNS+2aesB1hmkvLXfuA3KFK5HGSBk4/iZsE9aOgmmmUj4Dt5dAm0e41vVriGRVRJZZI2kijUghFJTGMqMkgscDmusQbUVSxYgY3HGT78UCHVleHf+QJF/10l/9GNQBq0UAFFABRQAUUAFFABRQAUUAUDldbX/AG7c/ow/xq/WNHeXqNhRWwgooAKKAOa1S31S01z7bpFukzXsXkT722pEynKyN3OAWGByfl/CO40G/tY11C11O8u9ThO8rNLtimGOU2D5VB7HHBxzWDjJt20senDEUIxhzK7lpLyS008/yJhrWq36rFp2i3EDsOZ9QASNPwBLMfbAHvU0Hh1DdJeapdSajdJ9zzVCxR+6IOAfc5PvTSdTfbsZycMKnGm+ab6rZLy8+76dDPtDrGk+bollpxnSJybW6mcLCkJ5AY9SVORgDoByKmtn1DRtbhh1LUGvIdQBVJCgVYplGdigdFZemc8qeeaS5la+yNpqhPmUdZTV/wDDpe3qy5qOsTJeJp2lxR3N8w3vvYiOBP7zkZPJ4A6nnpir1hFeRW/+m3UdxMSSWji8tQD2AyeB9a0i23pscdSnCnSSfxPX0X6t7+hdrK8O/wDIEi/66S/+jGqzmNWigAooAKKACigAooAKKACigChcHbqtm2OGWSP88N/7LV+sKPxTXn+iGworcQUUAFFABRgelABgelFACHpVS/0611O1NteQrNCWDbW9Qcg/nSaTVioTlCSlHdCafpVjpcTRWFpDbIx3MIkA3H1PrVyhKysgnOVSTlN3bFrK8O/8gSL/AK6S/wDoxqZJq0UAFFABRQAUUAFFABRQAUUAVru1W6i2lijqdyOOqt6ioPP1GFA0trFKq/eMMh3H3CkfpmuSoqlOfPTV77opWZJDqME0qxAyK7DKiSJkz9MgVbzWtGtGqrxE1YWithBRQBHPKsFvJM+dsalmwMnAGeneuesfGVtcancafe2F9pk8NsbwfbEQK8IOC4Ksw4yMg4Iz0pAW9M8SW2pT28Ijmhkurb7XbiUAebFxlgATjG5cg4I3Cp9R1hNPv9Ls3hlZtQnaBHXG1GEbPzznoh6A0wNHcD3FH40AHFOpIArK8O/8gSL/AK6S/wDoxqYGrRQAUUAFFABRQAUUAFFABRQAmKMUAQXdqt1AUJKsDuRx1Vh0Iqsba+iAkS786TvHIoVG+mBkfrXJWoTcuem7Pt3sUmJ/anmYihgdrrOGiYY2e7H0/n2pRdz2kyi/eLypOFkQFQrehye/Y1l9alL94tILf16/d1CyFbVA5xZwPdBeWaMgKPoTwT7CrFvewXI/dSKW7oThh9R1Fa08XCpKy2ez7+gOJJPMkFvJNISEjUsxAJOB14HJrzi5urPxmmtJaR3w1S70ueztUlsZoVhiIP3ndQpLNtzg9lA6Enpeok7FlIdQ1TWfD97pUa28ljo0qv8Aao22RSyeUFjcAg5GxiR1GBnGRV29j1j+0PCv9rtazXSapIzvZROsap9mmUE7iSOWAyT1Iq29f67k2srL+tDndNaK+17Ro5LW6SC7W/gvIpIJDIAzDCzSY+ZsgsOm0EY45OnYWmsxeFtUskgY6holtPY2EwABnJXcjqfXZ5Yz/e3VNtB9TDv4bDUfC2tXukNrTyzQW6TW81qYFjkWRcAKI1JkA3AlcjA57V6ppum2elWgt7GIRQ7mfaGJGWOSefUmmBcrK8O/8gSL/rpL/wCjGoA1aKACigAooAKKACigAooAKKACigAooATbznvSMisMMAw9CM1LinoAuKq3VjFcLkBUmHKShfmUjoaitSjUg4yQ0yv/AGmYo/LuIXW76LGBxIfVT0x/Kni7u4MfarXK93tzuC/UdfyzXIsVUb0je2/e/l3HZC/2xZf89m/79t/hT11OxZd32uAfVwCPzrRY/DbuaXroLlZW1G6tL+xnsoriZ3njZM2MmJEyMZDD7pHY1HYRXOlWEcCWkkkMY/juTLMe5LFvvEnnrUvFOetFc0Vu/wDIdu5cOqWYjVxMDu+6iglj/wABHNWIJjNEHMTx56K+M1tSxMKsrQ18+n/DiaaI/t9r9s+yecvn4J2fQAkemcEHHXBqh4Ymjm0GJ42yplm5x/01augRsUUAFRT3EVtF5szbUyBnBPJOB09yKAJc0UAFFAETXES3SWxY+a6M6rg8qpUHnp/Ev51LQAUUAFRxTRzb/LbOxijcdCO1AElFABUN1dQ2VpNdXD7IYY2kkbBOFAyTgc9BQBNRQAUUAV57qC3ntopX2yXMhjhG0ncwVnI9vlVjz6VPSsAYppjQtuKKT6kUnFPdBdihQOgA+lRR3MMs80KNmSEgSDB4JGR+hFNKy0AesMSOzpGis/3mCgFvrT6UYKKstAMWXSY7bVJdXZ2KIWuDEqZYyeUI85z02rwMdT1rI8PaT4e1X7e58O6fFLFOokKwqQ5eJJc9Ov7zB9cZqgNv/hFfD/8A0BbD/vwv+FH/AAivh/8A6Ath/wB+F/woAP8AhFfD/wD0BbD/AL8L/hVLVPD+gWdiZhoWnyYdFKmBccuB6ds5oAuDwt4fz/yBbD/vwv8AhS/8Ir4f/wCgLYf9+F/woAP+EV8P/wDQFsP+/C/4Uf8ACK+H/wDoC2H/AH4X/CgDPufDujx6tZxR+H9Mkjl3CRvJUNGoUnd06ZCLj/az2q//AMIr4f8A+gLYf9+F/wAKAF/4RXw//wBAWw/78L/hR/wivh//AKAth/34X/CgBD4V8PgZ/sWx/wC/C/4VnadoWiXF3qFvNoFhGbeYKpFtjepUHdyOeSRkZB2/hQBo/wDCK+H/APoC2H/fhf8ACl/4RXw//wBAWw/78L/hQAf8Ir4f/wCgLYf9+F/wqlqmheGNP0+W4udH04RAbTvgXacnAB46EkCkwQ3RtG8Pato1lqC6Lp3+kwLKQkKkAkcgHHODxV//AIRXw/8A9AWw/wC/C/4UxLYP+EV8P/8AQFsP+/C/4Uf8Ir4f/wCgLYf9+F/woGZmq6JoVlJZsfD1k8TzrG032ZGERYhV468lsZAOM88VpDwr4fx/yBbD/vwv+FAC/wDCK+H/APoC2H/fhf8ACj/hFfD/AP0BbD/vwv8AhQAh8K+H8f8AIFsP+/C/4VkWWl+HLrWLm0/4R+yiKlvLY2y/vghVXbOOMFgMH2NHUDY/4RXw/wD9AWw/78L/AIVfs7G10+DyLO3jgiBJCRrhQT14oAnPSoLSCG3h8uCKOJAT8qKFH5CgCxRQAVDcQQ3MXlXEMcsZIJSRQwyDkcH0PNAEopaACigCpJp1jJqUd+9nbteRrsS4MSmRV54DYyByfzNW+9ACUtAAelVbC3gtoGEEMcQZ2LBFC5OevFAFmlpAFI1MCO3jSKFI40VEQbVVRgADgAD0qWgAooAqTW8Et5BLJDG8ke7Y7KCVz1we3QflVodPxoAWigBD0NVYraCO7lmSCNZZPvuEAZu3J79B+VHUC3RQB//Z/+EzYWh0dHA6Ly9ucy5hZG9iZS5jb20veGFwLzEuMC8APD94cGFja2V0IGJlZ2luPSfvu78nIGlkPSdXNU0wTXBDZWhpSHpyZVN6TlRjemtjOWQnPz4NCjx4OnhtcG1ldGEgeG1sbnM6eD0iYWRvYmU6bnM6bWV0YS8iPjxyZGY6UkRGIHhtbG5zOnJkZj0iaHR0cDovL3d3dy53My5vcmcvMTk5OS8wMi8yMi1yZGYtc3ludGF4LW5zIyI+PHJkZjpEZXNjcmlwdGlvbiByZGY6YWJvdXQ9InV1aWQ6ZmFmNWJkZDUtYmEzZC0xMWRhLWFkMzEtZDMzZDc1MTgyZjFiIiB4bWxuczpkYz0iaHR0cDovL3B1cmwub3JnL2RjL2VsZW1lbnRzLzEuMS8iLz48cmRmOkRlc2NyaXB0aW9uIHJkZjphYm91dD0idXVpZDpmYWY1YmRkNS1iYTNkLTExZGEtYWQzMS1kMzNkNzUxODJmMWIiIHhtbG5zOnhtcD0iaHR0cDovL25zLmFkb2JlLmNvbS94YXAvMS4wLyI+PHhtcDpDcmVhdGVEYXRlPjIwMjEtMDMtMTJUMTg6MTI6MDkuMzQ5PC94bXA6Q3JlYXRlRGF0ZT48eG1wOkNyZWF0b3JUb29sPldpbmRvd3MgUGhvdG8gRWRpdG9yIDEwLjAuMTAwMTEuMTYzODQ8L3htcDpDcmVhdG9yVG9vbD48L3JkZjpEZXNjcmlwdGlvbj48cmRmOkRlc2NyaXB0aW9uIHJkZjphYm91dD0idXVpZDpmYWY1YmRkNS1iYTNkLTExZGEtYWQzMS1kMzNkNzUxODJmMWIiIHhtbG5zOmRjPSJodHRwOi8vcHVybC5vcmcvZGMvZWxlbWVudHMvMS4xLyI+PGRjOmNyZWF0b3I+PHJkZjpTZXEgeG1sbnM6cmRmPSJodHRwOi8vd3d3LnczLm9yZy8xOTk5LzAyLzIyLXJkZi1zeW50YXgtbnMjIj48cmRmOmxpPnpqMTk5NjwvcmRmOmxpPjwvcmRmOlNlcT4NCgkJCTwvZGM6Y3JlYXRvcj48L3JkZjpEZXNjcmlwdGlvbj48L3JkZjpSREY+PC94OnhtcG1ldGE+DQogICAgICAgICAgICAgICAgICAgICAgICAgICAgICAgICAgICAgICAgICAgICAgICAgICAgICAgICAgICAgICAgICAgICAgICAgICAgICAgICAgICAgICAgICAgICAgICAgICAgCiAgICAgICAgICAgICAgICAgICAgICAgICAgICAgICAgICAgICAgICAgICAgICAgICAgICAgICAgICAgICAgICAgICAgICAgICAgICAgICAgICAgICAgICAgICAgICAgICAgICAKICAgICAgICAgICAgICAgICAgICAgICAgICAgICAgICAgICAgICAgICAgICAgICAgICAgICAgICAgICAgICAgICAgICAgICAgICAgICAgICAgICAgICAgICAgICAgICAgICAgIAogICAgICAgICAgICAgICAgICAgICAgICAgICAgICAgICAgICAgICAgICAgICAgICAgICAgICAgICAgICAgICAgICAgICAgICAgICAgICAgICAgICAgICAgICAgICAgICAgICAgCiAgICAgICAgICAgICAgICAgICAgICAgICAgICAgICAgICAgICAgICAgICAgICAgICAgICAgICAgICAgICAgICAgICAgICAgICAgICAgICAgICAgICAgICAgICAgICAgICAgICAKICAgICAgICAgICAgICAgICAgICAgICAgICAgICAgICAgICAgICAgICAgICAgICAgICAgICAgICAgICAgICAgICAgICAgICAgICAgICAgICAgICAgICAgICAgICAgICAgICAgIAogICAgICAgICAgICAgICAgICAgICAgICAgICAgICAgICAgICAgICAgICAgICAgICAgICAgICAgICAgICAgICAgICAgICAgICAgICAgICAgICAgICAgICAgICAgICAgICAgICAgCiAgICAgICAgICAgICAgICAgICAgICAgICAgICAgICAgICAgICAgICAgICAgICAgICAgICAgICAgICAgICAgICAgICAgICAgICAgICAgICAgICAgICAgICAgICAgICAgICAgICAKICAgICAgICAgICAgICAgICAgICAgICAgICAgICAgICAgICAgICAgICAgICAgICAgICAgICAgICAgICAgICAgICAgICAgICAgICAgICAgICAgICAgICAgICAgICAgICAgICAgIAogICAgICAgICAgICAgICAgICAgICAgICAgICAgICAgICAgICAgICAgICAgICAgICAgICAgICAgICAgICAgICAgICAgICAgICAgICAgICAgICAgICAgICAgICAgICAgICAgICAgCiAgICAgICAgICAgICAgICAgICAgICAgICAgICAgICAgICAgICAgICAgICAgICAgICAgICAgICAgICAgICAgICAgICAgICAgICAgICAgICAgICAgICAgICAgICAgICAgICAgICAKICAgICAgICAgICAgICAgICAgICAgICAgICAgICAgICAgICAgICAgICAgICAgICAgICAgICAgICAgICAgICAgICAgICAgICAgICAgICAgICAgICAgICAgICAgICAgICAgICAgIAogICAgICAgICAgICAgICAgICAgICAgICAgICAgICAgICAgICAgICAgICAgICAgICAgICAgICAgICAgICAgICAgICAgICAgICAgICAgICAgICAgICAgICAgICAgICAgICAgICAgCiAgICAgICAgICAgICAgICAgICAgICAgICAgICAgICAgICAgICAgICAgICAgICAgICAgICAgICAgICAgICAgICAgICAgICAgICAgICAgICAgICAgICAgICAgICAgICAgICAgICAKICAgICAgICAgICAgICAgICAgICAgICAgICAgICAgICAgICAgICAgICAgICAgICAgICAgICAgICAgICAgICAgICAgICAgICAgICAgICAgICAgICAgICAgICAgICAgICAgICAgIAogICAgICAgICAgICAgICAgICAgICAgICAgICAgICAgICAgICAgICAgICAgICAgICAgICAgICAgICAgICAgICAgICAgICAgICAgICAgICAgICAgICAgICAgICAgICAgICAgICAgCiAgICAgICAgICAgICAgICAgICAgICAgICAgICAgICAgICAgICAgICAgICAgICAgICAgICAgICAgICAgICAgICAgICAgICAgICAgICAgICAgICAgICAgICAgICAgICAgICAgICAKICAgICAgICAgICAgICAgICAgICAgICAgICAgICAgICAgICAgICAgICAgICAgICAgICAgICAgICAgICAgICAgICAgICAgICAgICAgICAgICAgICAgICAgICAgICAgICAgICAgIAogICAgICAgICAgICAgICAgICAgICAgICAgICAgICAgICAgICAgICAgICAgICAgICAgICAgICAgICAgICAgICAgICAgICAgICAgICAgICAgICAgICAgICAgICAgICAgICAgICAgCiAgICAgICAgICAgICAgICAgICAgICAgICAgICAgICAgICAgICAgICAgICAgICAgICAgICAgICAgICAgICAgICAgICAgICAgICAgICAgICAgICAgICAgICAgICAgICAgICAgICAKICAgICAgICAgICAgICAgICAgICAgICAgICAgICAgICAgICAgICAgICAgICAgICAgICAgICAgICAgICAgICAgICAgICAgICAgICAgICAgICAgICAgICAgICAgICAgICAgICAgIAogICAgICAgICAgICAgICAgICAgICAgICAgICAgICAgICAgICAgICAgICAgICAgICAgICAgICAgICAgICAgICAgICAgICAgICAgICAgICAgICAgICAgICAgICAgICAgICAgICAgCiAgICAgICAgICAgICAgICAgICAgICAgICAgICAgICAgICAgICAgICAgICAgICAgICAgICAgICAgICAgICAgICAgICAgICAgICAgICAgICAgICAgICAgICAgICAgICAgICAgICAKICAgICAgICAgICAgICAgICAgICAgICAgICAgICAgICAgICAgICAgICAgICAgICAgICAgICAgICAgICAgICAgICAgICAgICAgICAgICAgICAgICAgICAgICAgICAgICAgICAgIAogICAgICAgICAgICAgICAgICAgICAgICAgICAgICAgICAgICAgICAgICAgICAgICAgICAgICAgICAgICAgICAgICAgICAgICAgICAgICAgICAgICAgICAgICAgICAgICAgICAgCiAgICAgICAgICAgICAgICAgICAgICAgICAgICAgICAgICAgICAgICAgICAgICAgICAgICAgICAgICAgICAgICAgICAgICAgICAgICAgICAgICAgICAgICAgICAgICAgICAgICAKICAgICAgICAgICAgICAgICAgICAgICAgICAgICAgICAgICAgICAgICAgICAgICAgICAgICAgICAgICAgICAgICAgICAgICAgICAgICAgICAgICAgICAgICAgICAgICAgICAgIAogICAgICAgICAgICAgICAgICAgICAgICAgICAgICAgICAgICAgICAgICAgICAgICAgICAgICAgICAgICAgICAgICAgICAgICAgICAgICAgICAgICAgICAgICAgICAgICAgICAgCiAgICAgICAgICAgICAgICAgICAgICAgICAgICAgICAgICAgICAgICAgICAgICAgICAgICAgICAgICAgICAgICAgICAgICAgICAgICAgICAgICAgICAgICAgICAgICAgICAgICAKICAgICAgICAgICAgICAgICAgICAgICAgICAgICAgICAgICAgICAgICAgICAgICAgICAgICAgICAgICAgICAgICAgICAgICAgICAgICAgICAgICAgICAgICAgICAgICAgICAgIAogICAgICAgICAgICAgICAgICAgICAgICAgICAgICAgICAgICAgICAgICAgICAgICAgICAgICAgICAgICAgICAgICAgICAgICAgICAgICAgICAgICAgICAgICAgICAgICAgICAgCiAgICAgICAgICAgICAgICAgICAgICAgICAgICAgICAgICAgICAgICAgICAgICAgICAgICAgICAgICAgICAgICAgICAgICAgICAgICAgICAgICAgICAgICAgICAgICAgICAgICAKICAgICAgICAgICAgICAgICAgICAgICAgICAgICAgICAgICAgICAgICAgICAgICAgICAgICAgICAgICAgICAgICAgICAgICAgICAgICAgICAgICAgICAgICAgICAgICAgICAgIAogICAgICAgICAgICAgICAgICAgICAgICAgICAgICAgICAgICAgICAgICAgICAgICAgICAgICAgICAgICAgICAgICAgICAgICAgICAgICAgICAgICAgICAgICAgICAgICAgICAgCiAgICAgICAgICAgICAgICAgICAgICAgICAgICAgICAgICAgICAgICAgICAgICAgICAgICAgICAgICAgICAgICAgICAgICAgICAgICAgICAgICAgICAgICAgICAgICAgICAgICAKICAgICAgICAgICAgICAgICAgICAgICAgICAgICAgICAgICAgICAgICAgICAgICAgICAgICAgICAgICAgICAgICAgICAgICAgICAgICAgICAgICAgICAgICAgICAgICAgICAgIAogICAgICAgICAgICAgICAgICAgICAgICAgICAgICAgICAgICAgICAgICAgICAgICAgICAgICAgICAgICAgICAgICAgICAgICAgICAgICAgICAgICAgICAgICAgICAgICAgICAgCiAgICAgICAgICAgICAgICAgICAgICAgICAgICAgICAgICAgICAgICAgICAgICAgICAgICAgICAgICAgICAgICAgICAgICAgICAgICAgICAgICAgICAgICAgICAgICAgICAgICAKICAgICAgICAgICAgICAgICAgICAgICAgICAgICAgICAgICAgICAgICAgICAgICAgICAgICAgICAgICAgICAgICAgICAgICAgICAgICAgICAgICAgICAgICAgICAgICAgICAgIAogICAgICAgICAgICAgICAgICAgICAgICAgICAgICAgICAgICAgICAgICAgICAgICAgICAgICAgICAgICAgICAgICAgICAgICAgICAgICAgICAgICAgICAgICAgICAgICAgICAgCiAgICAgICAgICAgICAgICAgICAgICAgICAgICAgICAgICAgICAgICAgICAgICAgICAgICAgICAgICAgICAgICAgICAgICAgICAgICAgICAgICAgICAgICAgICAgICAgICAgICAKICAgICAgICAgICAgICAgICAgICAgICAgICAgICAgICAgICAgICAgICAgICAgICAgICAgICAgICAgICAgICAgICAgICAgICAgICAgICAgICAgICAgICAgICAgICAgICAgICAgIAogICAgICAgICAgICAgICAgICAgICAgICAgICAgICAgICAgICAgICAgICAgICAgICAgICAgICAgICAgICAgICAgICAgICAgICAgICAgICAgICAgICAgICAgICAgICAgICAgICAgCiAgICAgICAgICAgICAgICAgICAgICAgICAgICAgICAgICAgICAgICAgICAgICAgICAgICAgICAgICAgICAgICAgICAgICAgICAgICAgICAgICAgICAgICAgICAgICAgICAgICAKICAgICAgICAgICAgICAgICAgICAgICAgICAgICAgICAgICAgICAgICAgICAgICAgICAgICAgICAgICAgICAgICAgICAgICAgICAgICAgICAgICAgICAgICAgICAgICAgICAgIAogICAgICAgICAgICAgICAgICAgICAgICAgICAgICAgICAgICAgICAgICAgICAgICAgICAgICAgICAgICAgICAgICAgICAgICAgICAgICAgICAgICAgICAgICAgICAgICAgICAgCiAgICAgICAgICAgICAgICAgICAgICAgICAgICAgICAgICAgICAgICAgICAgICAgICAgICAgICAgICAgICAgICAgICAgICAgICAgICAgICAgICAgICAgICAgICAgICAgICAgICAKICAgICAgICAgICAgICAgICAgICAgICAgICAgICAgICAgICAgICAgICAgICAgICAgICAgICAgICAgICAgICAgICAgICAgICAgICAgICAgICAgICAgICAgICAgICAgICAgICAgIAogICAgICAgICAgICAgICAgICAgICAgICAgICAgICAgICAgICAgICAgICAgICAgICAgICAgICAgICAgICAgICAgICAgICAgICAgICAgICAgICAgICAgICAgICAgICAgICAgICAgCiAgICAgICAgICAgICAgICAgICAgICAgICAgICAgICAgICAgICAgICAgICAgICAgICAgICAgICAgICAgICAgICAgICAgICAgICAgICAgICAgICAgICAgICAgICAgICAgICAgICAKICAgICAgICAgICAgICAgICAgICAgICAgICAgICAgICAgICAgICAgICAgICAgICAgICAgICAgICAgICAgICAgICAgICAgICAgICAgICAgICAgICAgICAgICAgICAgICAgICAgIAogICAgICAgICAgICAgICAgICAgICAgICAgICAgICAgICAgICAgICAgICAgICAgICAgICAgICAgICAgICAgICAgICAgICAgICAgICAgICAgICAgICAgICAgICAgICAgICAgICAgCiAgICAgICAgICAgICAgICAgICAgICAgICAgICAgICAgICAgICAgICAgICAgICAgICAgICAgICAgICAgICAgICAgICAgICAgICAgICAgICAgICAgICAgICAgICAgICAgICAgICAKICAgICAgICAgICAgICAgICAgICAgICAgICAgICAgICAgICAgICAgICAgICAgICAgICAgICAgICAgICAgICAgICAgICAgICAgICAgICAgICAgICAgICAgICAgICAgICAgICAgIAogICAgICAgICAgICAgICAgICAgICAgICAgICAgICAgICAgICAgICAgICAgICAgICAgICAgICAgICAgICAgICAgICAgICAgICAgICAgICAgICAgICAgICAgICAgICAgICAgICAgCiAgICAgICAgICAgICAgICAgICAgICAgICAgICAgICAgICAgICAgICAgICAgICAgICAgICAgICAgICAgICAgICAgICAgICAgICAgICAgICAgICAgICAgICAgICAgICAgICAgICAKICAgICAgICAgICAgICAgICAgICAgICAgICAgICAgICAgICAgICAgICAgICAgICAgICAgICAgICAgICAgICAgICAgICAgICAgICAgICAgICAgICAgICAgICAgICAgICAgICAgIAogICAgICAgICAgICAgICAgICAgICAgICAgICAgICAgICAgICAgICAgICAgICAgICAgICAgICAgICAgICAgICAgICAgICAgICAgICAgICAgICAgICAgICAgICAgICAgICAgICAgCiAgICAgICAgICAgICAgICAgICAgICAgICAgICAgICAgICAgICAgICAgICAgICAgICAgICAgICAgICAgICAgICAgICAgICAgICAgICAgICAgICAgICAgICAgICAgICAgICAgICAKICAgICAgICAgICAgICAgICAgICAgICAgICAgICAgICAgICAgICAgICAgICAgICAgICAgICAgICAgICAgICAgICAgICAgICAgICAgICAgICAgICAgICAgICAgICAgICAgICAgIAogICAgICAgICAgICAgICAgICAgICAgICAgICAgICAgICAgICAgICAgICAgICAgICAgICAgICAgICAgICAgICAgICAgICAgICAgICAgICAgICAgICAgICAgICAgICAgICAgICAgCiAgICAgICAgICAgICAgICAgICAgICAgICAgICAgICAgICAgICAgICAgICAgICAgICAgICAgICAgICAgICAgICAgICAgICAgICAgICAgICAgICAgICAgICAgICAgICAgICAgICAKICAgICAgICAgICAgICAgICAgICAgICAgICAgICAgICAgICAgICAgICAgICAgICAgICAgICAgICAgICAgICAgICAgICAgICAgICAgICAgICAgICAgICAgICAgICAgICAgICAgIAogICAgICAgICAgICAgICAgICAgICAgICAgICAgICAgICAgICAgICAgICAgICAgICAgICAgICAgICAgICAgICAgICAgICAgICAgICAgICAgICAgICAgICAgICAgICAgICAgICAgCiAgICAgICAgICAgICAgICAgICAgICAgICAgICAgICAgICAgICAgICAgICAgICAgICAgICAgICAgICAgICAgICAgICAgICAgICAgICAgICAgICAgICAgICAgICAgICAgICAgICAKICAgICAgICAgICAgICAgICAgICAgICAgICAgICAgICAgICAgICAgICAgICAgICAgICAgICAgICAgICAgICAgICAgICAgICAgICAgICAgICAgICAgICAgICAgICAgICAgICAgIAogICAgICAgICAgICAgICAgICAgICAgICAgICAgICAgICAgICAgICAgICAgICAgICAgICAgICAgICAgICAgICAgICAgICAgICAgICAgICAgICAgICAgICAgICAgICAgICAgICAgCiAgICAgICAgICAgICAgICAgICAgICAgICAgICAgICAgICAgICAgICAgICAgICAgICAgICAgICAgICAgICAgICAgICAgICAgICAgICAgICAgICAgICAgICAgICAgICAgICAgICAKICAgICAgICAgICAgICAgICAgICAgICAgICAgICAgICAgICAgICAgICAgICAgICAgICAgICAgICAgICAgICAgICAgICAgICAgICAgICAgICAgICAgICAgICAgICAgICAgICAgIAogICAgICAgICAgICAgICAgICAgICAgICAgICAgICAgICAgICAgICAgICAgICAgICAgICAgICAgICAgICAgICAgICAgICAgICAgICAgICAgICAgICAgICAgICAgICAgICAgICAgCiAgICAgICAgICAgICAgICAgICAgICAgICAgICAgICAgICAgICAgICAgICAgICAgICAgICAgICAgICAgICAgICAgICAgICAgICAgICAgICAgICAgICAgICAgICAgICAgICAgICAKICAgICAgICAgICAgICAgICAgICAgICAgICAgICAgICAgICAgICAgICAgICAgICAgICAgICAgICAgICAgICAgICAgICAgICAgICAgICAgICAgICAgICAgICAgICAgICAgICAgIAogICAgICAgICAgICAgICAgICAgICAgICAgICAgICAgICAgICAgICAgICAgICAgICAgICAgICAgICAgICAgICAgICAgICAgICAgICAgICAgICAgICAgICAgICAgICAgICAgICAgCiAgICAgICAgICAgICAgICAgICAgICAgICAgICAgICAgICAgICAgICAgICAgICAgICAgICAgICAgICAgICAgICAgICAgICAgICAgICAgICAgICAgICAgICAgICAgICAgICAgICAKICAgICAgICAgICAgICAgICAgICAgICAgICAgICAgICAgICAgICAgICAgICAgICAgICAgICAgICAgICAgICAgICAgICAgICAgICAgICAgICAgICAgICAgICAgICAgICAgICAgIAogICAgICAgICAgICAgICAgICAgICAgICAgICAgICAgICAgICAgICAgICAgICAgICAgICAgICAgICAgICAgICAgICAgICAgICAgICAgICAgICAgICAgICAgICAgICAgICAgICAgCiAgICAgICAgICAgICAgICAgICAgICAgICAgICAgICAgICAgICAgICAgICAgICAgICAgICAgICAgICAgICAgICAgICAgICAgICAgICAgICAgICAgICAgICAgICAgICAgICAgICAKICAgICAgICAgICAgICAgICAgICAgICAgICAgICAgICAgICAgICAgICAgICAgICAgICAgICAgICAgICAgICAgICAgICAgICAgICAgICAgICAgICAgICAgICAgICAgICAgICAgIAogICAgICAgICAgICAgICAgICAgICAgICAgICAgICAgICAgICAgICAgICAgICAgICAgICAgICAgICAgICAgICAgICAgICAgICAgICAgICAgICAgICAgICAgICAgICAgICAgICAgCiAgICAgICAgICAgICAgICAgICAgICAgICAgICAgICAgICAgICAgICAgICAgICAgICAgICAgICAgICAgICAgICAgICAgICAgICAgICAgICAgICAgICAgICAgICAgICAgICAgICAKICAgICAgICAgICAgICAgICAgICAgICAgICAgICAgICAgICAgICAgICAgICAgICAgICAgICAgICAgICAgICAgICAgICAgICAgICAgICAgICAgICAgICAgICAgICAgICAgICAgIAogICAgICAgICAgICAgICAgICAgICAgICAgICAgICAgICAgICAgICAgICAgICAgICAgICAgICAgICAgICAgICAgICAgICAgICAgICAgICAgICAgICAgICAgICAgICAgICAgICAgCiAgICAgICAgICAgICAgICAgICAgICAgICAgICAgICAgICAgICAgICAgICAgICAgICAgICAgICAgICAgICAgICAgICAgICAgICAgICAgICAgICAgICAgICAgICAgICAgICAgICAKICAgICAgICAgICAgICAgICAgICAgICAgICAgICAgICAgICAgICAgICAgICAgICAgICAgICAgICAgICAgICAgICAgICAgICAgICAgICAgICAgICAgICAgICAgICAgICAgICAgIAogICAgICAgICAgICAgICAgICAgICAgICAgICAgICAgICAgICAgICAgICAgICAgICAgICAgICAgICAgICAgICAgICAgICAgICAgICAgICAgICAgICAgICAgICAgICAgICAgICAgCiAgICAgICAgICAgICAgICAgICAgICAgICAgICAgICAgICAgICAgICAgICAgICAgICAgICAgICAgICAgICAgICAgICAgICAgICAgICAgICAgICAgICAgICAgICAgICAgICAgICAKICAgICAgICAgICAgICAgICAgICAgICAgICAgICAgICAgICAgICAgICAgICAgICAgICAgICAgICAgICAgICAgICAgICAgICAgICAgICAgICAgICAgICAgICAgICAgICAgICAgIAogICAgICAgICAgICAgICAgICAgICAgICAgICAgICAgICAgICAgICAgICAgICAgICAgICAgICAgICAgICAgICAgICAgICAgICAgICAgICAgICAgICAgICAgICAgICAgICAgICAgCiAgICAgICAgICAgICAgICAgICAgICAgICAgICAgICAgICAgICAgICAgICAgICAgICAgICAgICAgICAgICAgICAgICAgICAgICAgICAgICAgICAgICAgICAgICAgICAgICAgICAKICAgICAgICAgICAgICAgICAgICAgICAgICAgICAgICAgICAgICAgICAgICAgICAgICAgICAgICAgICAgICAgICAgICAgICAgICAgICAgICAgICAgICAgICAgICAgICAgICAgIAogICAgICAgICAgICAgICAgICAgICAgICAgICAgICAgICAgICAgICAgICAgICAgICAgICAgICAgICAgICAgICAgICAgICAgICAgICAgICAgICAgICAgICAgICAgICAgICAgICAgCiAgICAgICAgICAgICAgICAgICAgICAgICAgICAgICAgICAgICAgICAgICAgICAgICAgICAgICAgICAgICAgICAgICAgICAgICAgICAgICAgICAgICAgICAgICAgICAgICAgICAKICAgICAgICAgICAgICAgICAgICAgICAgICAgICAgICAgICAgICAgICAgICAgICAgICAgICAgICAgICAgICAgICAgICAgICAgICAgICAgICAgICAgICAgICAgICAgICAgICAgIAogICAgICAgICAgICAgICAgICAgICAgICAgICAgICAgICAgICAgICAgICAgICAgICAgICAgICAgICAgICAgICAgICAgICAgICAgICAgICAgICAgICAgICAgICAgICAgICAgICAgCiAgICAgICAgICAgICAgICAgICAgICAgICAgICAgICAgICAgICAgICAgICAgICAgICAgICAgICAgICAgICAgICAgICAgICAgICAgICAgICAgICAgICAgICAgICAgICAgICAgICAKICAgICAgICAgICAgICAgICAgICAgICAgICAgICAgICAgICAgICAgICAgICAgICAgICAgICAgICAgICAgICAgICAgICAgICAgICAgICAgICAgICAgICAgICAgICAgICAgICAgIAogICAgICAgICAgICAgICAgICAgICAgICAgICAgICAgICAgICAgICAgICAgICAgICAgICAgICAgICAgICAgICAgICAgICAgICAgICAgICAgICAgICAgICAgICAgICAgICAgICAgCiAgICAgICAgICAgICAgICAgICAgICAgICAgICAgICAgICAgICAgICAgICAgICAgICAgICAgICAgICAgICAgICAgICAgICAgICAgICAgICAgICAgICAgICAgICAgICAgICAgICAKICAgICAgICAgICAgICAgICAgICAgICAgICAgICAgICAgICAgICAgICAgICAgICAgICAgICAgICAgICAgICAgICAgICAgICAgICAgICAgICAgICAgICAgICAgICAgICAgICAgIAogICAgICAgICAgICAgICAgICAgICAgICAgICAgICAgICAgICAgICAgICAgICAgICAgICAgICAgICAgICAgICAgICAgICAgICAgICAgICAgICAgICAgICAgICAgICAgICAgICAgCiAgICAgICAgICAgICAgICAgICAgICAgICAgICAgICAgICAgICAgICAgICAgICAgICAgICAgICAgICAgICAgICAgICAgICAgICAgICAgICAgICAgICAgICAgICAgICAgICAgICAKICAgICAgICAgICAgICAgICAgICAgICAgICAgICAgICAgICAgICAgICAgICAgICAgICAgICAgICAgICAgICAgICAgICAgICAgICAgICAgICAgICAgICAgICAgICAgICAgICAgIAogICAgICAgICAgICAgICAgICAgICAgICAgICAgICAgICAgICAgICAgICAgICAgICAgICAgICAgICAgICAgICAgICAgICAgICAgICAgICAgICAgICAgICAgICAgICAgICAgICAgCiAgICAgICAgICAgICAgICAgICAgICAgICAgICAgICAgICAgICAgICAgICAgICAgICAgICAgICAgICAgICAgICAgICAgICAgICAgICAgICAgICAgICAgICAgICAgICAgICAgICAKICAgICAgICAgICAgICAgICAgICAgICAgICAgICAgICAgICAgICAgICAgICAgICAgICAgICAgICAgICAgICAgICAgICAgICAgICAgICAgICAgICAgICAgICAgICAgICAgICAgIAogICAgICAgICAgICAgICAgICAgICAgICAgICAgICAgICAgICAgICAgICAgICAgICAgICAgICAgICAgICAgICAgICAgICAgICAgICAgICAgICAgICAgICAgICAgICAgICAgICAgCiAgICAgICAgICAgICAgICAgICAgICAgICAgICAgICAgICAgICAgICAgICAgICAgICAgICAgICAgICAgICAgICAgICAgICAgICAgICAgICAgICAgICAgICAgICAgICAgICAgICAKICAgICAgICAgICAgICAgICAgICAgICAgICAgICAgICAgICAgICAgICAgICAgICAgICAgICAgICAgICAgICAgICAgICAgICAgICAgICAgICAgICAgICAgICAgICAgICAgICAgIAogICAgICAgICAgICAgICAgICAgICAgICAgICAgICAgICAgICAgICAgICAgICAgICAgICAgICAgICAgICAgICAgICAgICAgICAgICAgICAgICAgICAgICAgICAgICAgICAgICAgCiAgICAgICAgICAgICAgICAgICAgICAgICAgICAgICAgICAgICAgICAgICAgICAgICAgICAgICAgICAgICAgICAgICAgICAgICAgICAgICAgICAgICAgICAgICAgICAgICAgICAKICAgICAgICAgICAgICAgICAgICAgICAgICAgICAgICAgICAgICAgICAgICAgICAgICAgICAgICAgICAgICAgICAgICAgICAgICAgICAgICAgICAgICAgICAgICAgICAgICAgIAogICAgICAgICAgICAgICAgICAgICAgICAgICAgICAgICAgICAgICAgICAgICAgICAgICAgICAgICAgICAgICAgICAgICAgICAgICAgICAgICAgICAgICAgICAgICAgICAgICAgCiAgICAgICAgICAgICAgICAgICAgICAgICAgICAgICAgICAgICAgICAgICAgICAgICAgICAgICAgICAgICAgICAgICAgICAgICAgICAgICAgICAgICAgICAgICAgICAgICAgICAKICAgICAgICAgICAgICAgICAgICAgICAgICAgICAgICAgICAgICAgICAgICAgICAgICAgICAgICAgICAgICAgICAgICAgICAgICAgICAgICAgICAgICAgICAgICAgICAgICAgIAogICAgICAgICAgICAgICAgICAgICAgICAgICAgICAgICAgICAgICAgICAgICAgICAgICAgICAgICAgICAgICAgICAgICAgICAgICAgICAgICAgICAgICAgICAgICAgICAgICAgCiAgICAgICAgICAgICAgICAgICAgICAgICAgICAgICAgICAgICAgICAgICAgICAgICAgICAgICAgICAgICAgICAgICAgICAgICAgICAgICAgICAgICAgICAgICAgICAgICAgICAKICAgICAgICAgICAgICAgICAgICAgICAgICAgICAgICAgICAgICAgICAgICAgICAgICAgICAgICAgICAgICAgICAgICAgICAgICAgICAgICAgICAgICAgICAgICAgICAgICAgIAogICAgICAgICAgICAgICAgICAgICAgICAgICAgICAgICAgICAgICAgICAgICAgICAgICAgICAgICAgICAgICAgICAgICAgICAgICAgICAgICAgICAgICAgICAgICAgICAgICAgCiAgICAgICAgICAgICAgICAgICAgICAgICAgICAgICAgICAgICAgICAgICAgICAgICAgICAgICAgICAgICAgICAgICAgICAgICAgICAgICAgICAgICAgICAgICAgICAgICAgICAKICAgICAgICAgICAgICAgICAgICAgICAgICAgICAgICAgICAgICAgICAgICAgICAgICAgICAgICAgICAgICAgICAgICAgICAgICAgICAgICAgICAgICAgICAgICAgICAgICAgIAogICAgICAgICAgICAgICAgICAgICAgICAgICAgICAgICAgICAgICAgICAgICAgICAgICAgICAgICAgICAgICAgICAgICAgICAgICAgICAgICAgICAgICAgICAgICAgICAgICAgCiAgICAgICAgICAgICAgICAgICAgICAgICAgICAgICAgICAgICAgICAgICAgICAgICAgICAgICAgICAgICAgICAgICA8P3hwYWNrZXQgZW5kPSd3Jz8+/9sAQwADAgIDAgIDAwMDBAMDBAUIBQUEBAUKBwcGCAwKDAwLCgsLDQ4SEA0OEQ4LCxAWEBETFBUVFQwPFxgWFBgSFBUU/9sAQwEDBAQFBAUJBQUJFA0LDRQUFBQUFBQUFBQUFBQUFBQUFBQUFBQUFBQUFBQUFBQUFBQUFBQUFBQUFBQUFBQUFBQU/8AAEQgBJAG5AwEiAAIRAQMRAf/EAB8AAAEFAQEBAQEBAAAAAAAAAAABAgMEBQYHCAkKC//EALUQAAIBAwMCBAMFBQQEAAABfQECAwAEEQUSITFBBhNRYQcicRQygZGhCCNCscEVUtHwJDNicoIJChYXGBkaJSYnKCkqNDU2Nzg5OkNERUZHSElKU1RVVldYWVpjZGVmZ2hpanN0dXZ3eHl6g4SFhoeIiYqSk5SVlpeYmZqio6Slpqeoqaqys7S1tre4ubrCw8TFxsfIycrS09TV1tfY2drh4uPk5ebn6Onq8fLz9PX29/j5+v/EAB8BAAMBAQEBAQEBAQEAAAAAAAABAgMEBQYHCAkKC//EALURAAIBAgQEAwQHBQQEAAECdwABAgMRBAUhMQYSQVEHYXETIjKBCBRCkaGxwQkjM1LwFWJy0QoWJDThJfEXGBkaJicoKSo1Njc4OTpDREVGR0hJSlNUVVZXWFlaY2RlZmdoaWpzdHV2d3h5eoKDhIWGh4iJipKTlJWWl5iZmqKjpKWmp6ipqrKztLW2t7i5usLDxMXGx8jJytLT1NXW19jZ2uLj5OXm5+jp6vLz9PX29/j5+v/aAAwDAQACEQMRAD8A/Ub7fbG8Nr9piN0E3+RvXzAuQM7euMkc+9Ogvbe4mliimjeWEgSIrAlCeQCK8L8cfC/w7qnxY8P69oWmWVh4i0TUpdT1TxAgC3ErS28kMVi03WQyNJC3lMSFSNOF3Rg+QfCzXtS0DS/gVrtrA15rN74Y1+98Sbjta5dUjmk+0MATu+2ELyDtLuAOamGtoilpFy/ra59uetNK8ivNPg14w8e+NtL0vWfEugeHNL0bVNMiv4JdJ1ie6uFeRY2WN43tY1I2s2XD5BUDa2Sy+mmh6aD8xMUq1GzbeRn1rF8F+Jl8V6Wb1YTb7ZZIDGW3YKMR1rneIpwqxoN6yV18iuXqdBRRRXUSFFFFABRRRQAUUUUAFFFFABSNS1558ZvipH8JdK0LUbixkvLS/wBYttMnkWQILVJSQZm9VXHT3FTKSinJnRh8PUxVWNGiryeyO/43HIxSqRwB6VDC+5B3DdKkjX5gfQYqk1JXRzbOz0JaZJ09adUczARnOMd80eoxoQKeBxinxqRzj3rz74YfF7SPihq3i2y02K4iuPDupSaXc/aFADuhxvQg8qSp/KvQI2B479KmFRVI8yNq+Hq4Wp7GtHlkunqr/kS0UUVRiFFFFABRRRQAUUUUAFFFFABRRRQAUUUUAFFFFABRRRQAUUUUAFFFFABRRRQAUUUUAFFFFABRRRQAUUUUAcFH8C/hxD4uHiqL4f8AhZPFAn+0/wBuLotsL7zj/wAtBNs37v8Aazmk8VeD9D0Lwr4y1HTtIs7G/vNLuvPuILdUkkyjuQWABwWYtjuzE131c98RP+Sf+Jv+wZc/+imoAy/gl/yRnwF/2ALD/wBJ467Rq4v4Jf8AJGfAX/YAsP8A0njrs2pPYBrdK4L4at/Z/iDxho54MGofa1A/uTLkf+gmu95rgFxpPxkBX5YtW00595Y2/wDiK+dzL91Xw2JXSXK/+3kaQ2Z6FkUtMX5snt2p9fRJ6XRmFFFFMAooooAKKKKACiiigArx/wDa08I/8Jl+z/4wtVXdNbWbX8QHXfARKAPc7MfjXsFU9Ws01HT57WRA8cyNGyt0IIwRWdSPPBx7nbgcR9VxVKv/ACyT+5ngHjL9oK50X4C+EtV0JFvfGni21t4NIslw7G6kjG5yOm2Mkk546A9a639mn4nX/wAUvhzDea2ixeJtOnk0vWYwFBS6hbawIXgEja2BwC5xXk37KX7OfiLwb4juNY8cK0p8N+do/hq3nZXEduZGZ7kBeAX3bRn5sBs8Fa2rO+h+B/7UurW11Mtn4a8eWTXySSHbHFf264lGegBj+ck9zXkUqlZclap8L0t28/v/AAPv8fhctqQxGXYFKpVjeoprr3pryjH75Jn0znqP0qpqU6Wem3M8h8tI42dm9ABkmvlj/hqrXPEPxa8KPoWn+X8LdQ1j+whrNyhzqFyyNsaH/pnuGAw4PP0Htn7QHiD/AIRn4J+NtQVxHPFo9wImP/PRoyqf+PEV6CxMKkJuHRHy1XIsVg8RhqOI0dW1ktWru1n2a6rofMP/AAT58QXt3458em/XY2vJHrcCf7LTzq7f8CJU19yDjFfG3wc0L/hW/wAaPhJGVMR1z4fixkTt58bLcOf/AB4j8K+xS42njvzXNlqkqHJ2f/B/U9njWdOtmn1mlpGcV+Hu/wDtpLn160KfmrhvG3xb8N+AvEHhzRtZv/sl/wCILoWmnoULeZISAM46AlkXJ4yw9a7WFvmwBgDivSUottRPiJUatOMJzjZSV031S7E9MkOFp9c18RPHWj/Dfwjf+IteuPs2l2Sh5ZApY8sFUADqSxAHuRTclFXYqdOdaap01eT0S8zfEm7tzT1b5sZ59KyvDuvWXiXQtO1jTpludO1C3ju7aZc4kjdQysPYgitSP5m3DoRVaWujOUZQk4yVmv03JKKKKQBRRRQAUUUUAFFFFABRRRQAUUUUAFFFFABRRRQAUUUUAFFFFABRRRQAUUUUAFFFFABXPfET/kn/AIm/7Blz/wCimroa574if8k/8Tf9gy5/9FNQBl/BL/kjPgL/ALAFh/6Tx12h7VxfwS/5Iz4C/wCwBYf+k8ddrQAxvu8/SvP/AIlL/Zuu+ENZGP8AR9R+zMT2SYbWP5CvQq4z4vac+oeAdT8r/XW6rcofTYwYn8ga8HOqcp4GfJ8UdfudzSHxI69cDp/n1p61Q0PUE1fSLK+j/wBXcQpMv0ZQf61fzzXr0akatNThs7NEPdjqKKK3EFFFFABRRRQAUUUUAFIaWkNADWX5cdOa85+NHwO8NfHHRLDTPEcM7W9ldrdxm2k8tycEMhP91gxyK9IFNfOKidONSLhJXTOnD4qtg6sa+Hk4zjs1uj50/aw8IwaJ8AvtGg2kNo/hG6stTsYYV2rGIZFBwMcAIz/mag/a61weIv2d7G0sX48VXenWkD+oklRx+imvbPiJ4dTxd4B8RaHIFK6jp89qfbfGy5/Wvjjwn4sf4jeEf2Z/C8ylZ7bWnkmhf7yHTUZRn8Np/GvLxFqcpRenOrfc7fqffZHbF0aNas2/YVJN37ODnf8A8Cget/Hqxj8L/E/4F64q+XHa602ir7C5hKAf+Oj8q+kP4R3FfPv7bRFh8JNP15Vy/h/XdP1RT6bZlTP/AJENe9W8yzWaS5yrKHz+HWuqjeFacPR/p+h89mDVbLsJV6+/F/KXMv8A0o+K/wBrrRdR+JnxenstGmkjuvBHhiTxDFJD1F0ZlIjHuUiyPwr6y+F/jO3+IngTQfEdsRs1CyjmZR/A5X5lP0bI/OvHP2c7WPxp8T/jL4ym/exXesjRId33THax7CR7HePyqT9lCb/hC9a+IPwwlJX/AIRzVWuLBW/58bjMkSj6fN/30K48OuWr7T/n43+G34H0mbqNbL/qNvfwig/lNe/90mj6IkHynP1r5Z/4KE+IJIPhHY+G7RRLdaxfAvD6wwK0zn80T86+p2OMflXyn8YbEfEv9o+90ph51p4T8HXl1/u3V0pj2/8AfvBrox7cqLgvtaHj8IqNPNqeKqK8aPvtem34tHtP7O90Lz4F+AJu/wDYNkp+ohUH9Qa9EXG4Y9K8d/ZF1Aaj+zv4IIO7yrAQbv8Acdk/9lr2KNcV04Zt0YOW9l+R4WbR5MwxCStacvzZJRRRXQeUFFFFABRRRQAUUUUAFFFFABRRRQAUUUUAFFFFABRRRQAUUUUAFFFFABRRRQAUUUUAFc98RP8Akn/ib/sGXP8A6Kaug9a5/wCIn/JP/E3/AGDLn/0U1AGX8Ev+SM+Av+wBYf8ApPHXa1xXwS/5Iz4C/wCwBYf+k8ddrQAVV1Kzj1CxntZf9VMjRtg4OCMGrVNYZrOpFTi4yWjGtNTzmx8B+KfDdtHa6P4qSW0hG2K1vrNWCr2BcfNUkPi/xJoGrabZeJbCxFrfT/Z01CwlbarkEqCrc84r0EfnXL/Erw8/iLwhe28HF5Gont2x0kQ7l/PGPxr5XE5ZLAUJVcBUknDXlu2mt2rO/wCFjWMuZ2kdMhHP+f8APenrWH4M19PFHhnT9STg3EQLr/dccMv4EGtxe9fS4etHEUo1obSVzJqzsOooorpEFFFFABRRRQAUUUUAFNanU1vyoAhkGVIxnjpXwt8CfCtxZftt+JdBmx9i8PPqWrWkf/PMXZh4/KQV91Pjdnq2OBXJ6X8MfDeleP8AVfGlppkcPiLU7dLW5vstvkjUjAI6fwqPoi1w4rD+3nTn/K7n1GTZxHLMNjKEo83tocq8pX3+66+ZzX7T2hr4h+AfjuzaPzGj0qa5T3aIeYP1QUnhnx7FZ/s22Hi92DLb+Gk1GVvUpb72H5g16F4g0qHXdHvNNuM/ZbqF4JNvXaylT+hr5J8Zfs9/GHwz8PLn4f8AhfxJp/iXwdeILJItSjNvd2ULOCVDr8sqhcg5wcHtUYj2kKjqQjfQ68oWExmGhhMRVUOWope9ezja0raWvp1aPXf2P/DMvh34AeGZboh7zVI31WaT++07tIp/75ZB+FN+MPwW1zVfE8HxB+H2s/2F44tLYWrR3C7rTUYAdwhmX69G7e3Uet+HNHi8P6HYaXbjENnbR28fsqjA/HitBvunIye1bRoqVFU5abHlVM2q0swq42h9tvRq6cW9mn0seGfDv9p/SdZ1QeGfG1nJ4F8cQny5tK1E4jmYHAaCX7rq3OMcntkDNYf7NtoPGmrfFvx5MPM/t3W5bG1kznfaWy+XGQfQ5b8q9g+Ifwt8L/FPQ20zxRottqVs33fMX54z6q45B+nNTfD34d6N8L/Btr4Z0GBrfTLUSbI5HMjFncsxLHkksxPPrWXsqvPFzd0u36o9KWY5fDCVFhKbhVqOKa0cUk+Z8r3s2lo9rbs8t/YYkb/hnPQrZ/8AWWlzeQN7H7VKf5EV9ALXz9+xmwt/Avi7Tgc/2b4q1K0+mJA3/s1fQC1rhXejE8/iCHs81xCX8zf36/qPooorrPnwooooAKKKKACiiigAooooAKKKKACiiigAooooAKKKKACiiigAooooAKKKKACiiigArnviJ/yT/wATf9gy5/8ARTV0Nc98RP8Akn/ib/sGXP8A6KagDL+CX/JGfAX/AGALD/0njrta4r4Jf8kZ8Bf9gCw/9J467WgAooooAKZJ92n0jdqT1VgPOvAjDw34v8QeGnO2FpP7RsfeJ+GH/AW4r0NOc1w3xM0a4+y2viHTE3avo7mZE/57Rf8ALSM+xH8q6jw7rVt4g0q11CzbzLe4jEinuM9j79R9Qa+byz/ZKs8vnsveh/hb/Rm0/eSmalFFFfSmIUUUUAFFFFABRRRQAUUUUAJRS0UAJj2opaKACkpaKAEprjin01qAPnv9lP8A0PxB8Z9P6FfG17chfaVUP9K+gk6j6V88/s+yfZPj58c9N6bNSsrvH/XWAn/2Wvoha48H/AivX82fScRNTzCU11UH98IjqKKK7D5sKKKKACiiigAooooAKKKKACiiigAooooAKKKKACiiigAooooAKKKKACiiigAooooATv0rn/iJ/wAk/wDE3/YMuf8A0U1dDXPfET/kn/ib/sGXP/opqAMv4Jf8kZ8Bf9gCw/8ASeOu1rivgl/yRnwF/wBgCw/9J467WgAooooAKQ0tIaQDJFUrg4I96888FKPCvjnW/DhGy0uANSsx2AY7XX/voD8q9E44rz/4oRNpMmjeKIly+k3IE+Ov2eT5X/mK+ezeDpKnjYb0n/5K9JG1N3vHud735Jp69etefePPFGoTS2eg+GpE/te+T7QZv4YIBn5292IIH0rb+HvihvE2hrJcKItRt2Nvew9GSZeGyO2evt07VrRzbDV8X9Vg9bb9H5J90t0T7NqNzqaKKK90zCiiigAooooAKKKKACiiigAooooAKKKKACmSfdp9I1AHzt8NY/7P/bC+LMX3ft+m6ZdY9dkbR5r6IUV886a32H9ubU4Rwt94KjufxW7KV9Cq2TXHh9p/4mfR54l7ShJfapU39yt+g+iiiuw+cCiiigAooooAKKKKACiiigAooooAKKKKACiiigAooooAKKKKACiiigAooooAKKKKACue+In/ACT/AMTf9gy5/wDRTV0Nc98RP+Sf+Jv+wZc/+imoAy/gl/yRnwF/2ALD/wBJ467WuK+CX/JGfAX/AGALD/0njrtaACiiigAooooAKoa7pcWtaTdWE4zDcxtC49QwI/rV+mscYrKrCFSDhUV09GBw3w08Ay+EbaeXULhb/VJwsbXAJYLEnCICeen61n+KY5fAPir/AISm3iZ9KvEEWrRxruKY+5Lj25B+tejL/wDXps8KTRlHUMjAgq3Qj0NeHLJ6MMLHD4b3XB3i+z/rT0Ned82pDp95DqVvDdW8qTwTLvSRDwwPTFW8eleXzQzfCPUvtMG6TwhdyfvoT1sHJ+8v+weR9SK9Lt7hLqGOWNt8cih1YdCD0NdGAxrxCdGrHlqx+Jfqu6fcmUUtUTU2qGu61a+H9KudQvZPKtoF3O+M4FcRN8YoIlhnfQNXg055ERr25t/LjUMcBuvI6fnWmKzPC4Ofs607McYSlsej9aWoozu5ByDUg+9ivSi1JJrVMjyHUUUVYgooooAKKKKACiiigAprfd/SnU1ulAHzz4nYaf8AtreELjP/AB/+GLq0/wC+JvM/rX0KnqB2r51+MLHT/wBqz4KXWcJcR6rbSH/t3Vh+tfRUfPUcjr+VceH+Kp6/oj6LNpe0pYSf/TtL7pSQ+iiiuw+dCiiigAooooAKKKKACiiigAooooAKKKKACiiigAooooAKKKKACiiigAooooAKKKKACue+In/JP/E3/YMuf/RTV0Nc98RP+Sf+Jv8AsGXP/opqAMv4Jf8AJGfAX/YAsP8A0njrta4r4Jf8kZ8Bf9gCw/8ASeOu1oAKKKKACiiigAooooASg0tI3SkBXvbWG8tZILiNZIZRsdW6EHsa888N3Evw98SJ4bu3L6LesW0udv8Alm2eYD/SvSPvYxWH4z8LweLtCmsJvkc4eCYfehlH3XHuDXh5jg51OXE4bSrDbzXWPzNINbM5nx43/CTeKdB8LopkhZv7RvVHTyUPyK3szjH4V1PirQ4/EnhvUNNJAFzAUVuytjKsPxwfwrnvhr4X1bT7rVNV8QFX1a4ZYFKNuHkoMKwP+0eSPau5bA7/AJ1xZfhp4yjWr4qHLKt0e6jskypSs1boct8Mdbk17wfYyTjZeQL9muU/uyJ8pH6Z/GusWvPPDLHw38S9d0hvktdTQalbAngPwso/E816Ev3s125NWlUwipz+KDcX/wBu6fkTUXvXH0UUle6Zi0UUUAFFJS0AFFFFABTJOmPXin0x+31oD1Pnj9o6MWfxY+CWpkfc197T/v7EV/8AZa+h423V88/tlq2keEvB3i3B+y+F/FFhqd5t6+QrlGx+Mi17/YXCXUEcqMGWRQ6kHjBAPH6fnXFR/jVfl+R9Jj7SyzBSXRTi/VSv+TLVFJS12nzYUUUUAFFFFABRRRQAUUUUAFFFFABRRRQAUUUUAFFFFABRRRQAUUUUAFFFFABRRRQA3bXP/EL/AJJ/4m/7Blz/AOimrnLj4kXdv8Zk8FS2EKWMnh+fWk1L7Qd+6O4jiMZjKfKP3md245x0HQ+br+0NH408K2nm6WtlpXjbQNWvtBn83dKyW8edsy4wGkiYSjaSF+ZTk4JmNpOyHK6XMz1j4J/8kZ8Bf9gCw/8ASeOu0GM1wnwNuY5vg74FEbq23QNPBAbJH+jpxXdiq1Tsyel0LRRRQMKKKKACiiigAooooASloooAKa4Bxn1p1I1IDjfiB4ZudWtbbU9Kfytc01jNaN2fI+aM+zD+lS6L8QNK1Tw/Dqs93Dp658uaO4kCmOUfeQ57g5rqX7cd65aT4a+Gp9Ym1OTSIZbuY5dpgWUn12Hjp7d6+cr4PE0cR7fA2974lLbykvPv3NVKLVpGv4f8Rad4ktWudNuku4Fcxl0zjcOo5rTZen515xZwR+B/iYbWNVh0rXot0cajCpcoOQPQFea9GDZ7Z4rpy3FVcVTar29pBtO23y66oUly6oXjrQzDdjiuU8Z+Nl8OtDY2du2o65d8W1jF1Pqzeijv/TrXP2vw312Ytqs/ie7g8QyHcTDzaqvaPy+46c+355YjMpKr7HCU3Ua+K2lvK73l5feNR6s9Lzjr+FKmMnFedjTfiDqWLe51TStKiU7WuLOJpJZffDcLxmr/AMMdZvLqHUdI1WZrjVtJuDBLM4AaaM8xykDpuAP/AHzSo5r7TEQoyoygpXs5W1a6Wvf9OwOGl7ncUlGRTZOlfQXRkOxSNxzVCw1qx1K7vLa1uo557Rgk8aNkxseQD71ePQCsoVY1I88XdD1OU+Kng2H4hfDrxD4cmxt1KyltgxH3GZSFce6nDD3Arhv2TfGk/i74I6It/uGqaQH0i9jf76SwN5fzf7RUKx/3q9iYfKPy6V8i2vxO0f8AZi+NnxM0fXTOuma88PiLR7S1hLyXFxKPLliQDqzSLxkgeprkrSjh6iqy22f6fifV5XQq5ngK2X0U5TTVSKX/AIDL8Gn8j65LfKSBkjtSxsS2NuBjOa+avAX7RHjST4m6To/j7wtH4S0XxPEf7AaRi06yKeY7g5ADuhBVcAqcDkkgfSVucnJ9M89f/rV2Uq0KqfKeLj8ur5dOMK1veV00001tutNHo/MsUUlLWp5oUUlFAC0UUUAFFFFABRRRQAUUUUAFFFFABRRRQAUUUUAFFFFABRRRQAUUUUAeX6l4A1q6+O1v4saPTn8Or4audFlVrl/tbSSTxSgiMQ7SmEZSfMzz0NeVW37PuqeF/CPh611e4tZdE+HnhzWNO0545TJJfieLyo3mQooXZbrgjLbmcnoAT9RbuK5/4hH/AIoDxN/2DLn/ANFNSjZO63BvmXKzgP2bvhP4J8H/AA78G67oXhDw/o2u3fh2zS51PTdMht7iZZIYXcNIqhirMiMQTglVPYV7D/FXFfBPH/CmvAX/AGALD/0njrtaerd2LS1kLRRRQMKKKKACiiigAooooAKKKKACiiigAprfd6cU6mtSd7aAcl8SvDs/iHw25sjs1SydbyzkXqJU5AH1GR+NYLfEbXLqzWOz8HaoupzKFX7Qm2BH9WbPQc/l2616VjjnmkVcdBivn8Tlk6ld1qFV0+ZWlbrbZmqlZHKeCfBP/CPtPqGoTf2hr15811eMMD/cQdlHH1x+A6yg/Whegr08LhaWDpqlSVl17t93592Q3fUG4znoOa818cXA8C+MNP8AFJ3LYXCNYahsXcQMbo2x7EfrXpdV7y1hvofLniSaMkEpIuRxXNmOEljKKjTnyzWsXa9mVCSi9djy2ax8WeOIW1+1upNFW3HmaXp4OPPwc75v94AgDpz+J0br4oR3Pg9LmyhYa9cyfYk088PHck4YEegwTn29c16J1Uc+3Fc9H4B0aPxY3iJbcjUGTafm+Xd/f2/3scZ9zXh1crx1DXCVbuek2/8A0qK6NbW2NPaKXxLY4jw3oL/DnxtpMMk7zjXLR47mRjnddKd5fPuCwr1rCjJPFcR8XLCWTwmdRtB/pukzJfw465Q/N+G0n8q5T4geLbjxzpN7pvh6TdYwWRvb+6Xpt2b1h+rDH4ZrihisPw77fCpXStKEervv+KuyuV1bM9hbqBjisHUPBOialr1nrV7pNpdatZIyW17LCrTRA8kIxHHTtUnge6e98HaHO7b3ksoWZickkouf1rbbHGfXivtcPUWKowq8vxJOz6GUZzot8srHm3x4+E8Xxe+H9zpMchs9VgIu9MvUOHtrpOY3Vu3OQfYmsv8AZ3+MLfEnw9PpetxnTvHOiN9k1rTJgFdJV48xV/uPwwI9cdhXrbY2gA9T3FeJfG74K6lrusWXjnwLcppPxB0pcRyn5YtQh6m3m7MpwACenqOomrGUJ+2pq/ddz6DL69HF4f8As3GSUVe8JP7Muqf92XXs9e57ac9ehz2p+eeeK+atT+O3xl8IaTLqmvfBQLpVmolvLmx1+3mdIxy7rGvJAGeO2D1617n4H8ZaV8QfDVhruiXIu9NvYRNDNznnqCDyGBGCDyDkdQauniIVZ8qTT81b8/0OHGZTicDTVWfLKLdrwnGav2bi3Z+trnQN84PsaSNhuI3bj1Fcb8YviFa/Cn4b654mumGLC2ZooycebKfljTPbc5UZ7Zya+dv2c/EvjL4UeOLDwv8AES+ku4/HFq2uafcTsf3N43zT2gycgqu1sD5c5x1pVcSqdSMOXfqdODyWrjcFWxkJpcu0XvO2srf4VqfX249xTh96oo/mB5yKkXjGa6/Q+e6X2H0UlLQMKKKKACiiigAooooAKKKKACiiigAooooAKKKKACiiigBi9qwPiJ/yIPib/sGXP/opq6EVz3xEP/FA+Jv+wZc/+imo6i6GZ8Ev+SM+Av8AsAWH/pPHXa1xXwS/5Iz4C/7AFh/6Tx12tAwooooAKKKKACiiigAooooAKKKKACiiigAooooAKKKKACiiigAooooAShhmlpGoArXlrHeW8sEqh4pUMbqehU9R+Vc9pvgux8N+Fb3SdPQrDLHJuZzuZ2YEEk/kPwrqeKY65U/SvMxWDo1r1JRvPlcU/Jmik9jj/hDc/avh3orf3YmT/vlyv9K7Na4H4Lny/CM1r/z6X1xB+UhP9a75ayyifPgaT8rfdoKfxsXHtQ3Tpmlpr9ucV7BHqVryMTWzRldwYbdvbkV8ySaB4s/Zh8Yavf8AhHwxe+LvhnqxN7NounsPtek3BPztBGfvxt12AjHYDHzfUG7dkDk9xTZPugbQeORWNSjztSi7NHqYHMJYLnpyjzQkvei72fZ6Wd10Z8i6z8RNM/a0+J3g7wpoP2n/AIRnR5DrviCK8tXhYSRELFbSBv8AbOWXnIPXjn2f9oX4WS/E34dmLTJPsvibSZk1LRrpcB47uI7kAPYNjafTOe1ekWum2lrdy3MNrDFczhRJMiAO4A43HvVxssqg+tYxw3uyjUd7no4jOoxrUJ5fB04Uvhi3zO71ldpK99tttDy/4EfGiz+LHhgm4jbTfFOm4ttZ0m4+WW0uBw2R/dJB2t3xjqDTviR+0d4F+FmqQ6XrGrPPq8y7o9N0+F7ifHHJVB8v/AuTnjvXP/GD9nu58XeJLfxd4M16TwT4zRfs82pW8QdLq3bgpLH0YjgqT0IHI6jpfg/8B/Dnwhtpm09ZdS1y8G6/1zUG827vGzkl2PbP8I4GB9ayj9YX7trb7Xl/n3OqpHJdcY5SaltSWjT63m01y9rJt7NLc4L/AIa8mumL6b8J/iBf2o6XA0fYre4y+f0rsvhH+0JpHxW1nUtGOlar4Z8Qaegll0jXLf7PcGM4xIq5OUyQM+pFepyRjZjaD26V4l8fPg7qOvrZeNvBTLYfEDw6Gmsmzhb6Pq9rKeNysMhc8Ak8jki5qvTXPzc3lbcwoVMrxs/qzpeyctFLmbSfTmutujslbc9tUlupzj9Kkj6jnPFfJuqfGr42/EDwnd3vgvwIfCMNjbGa5vvESETTOgzJFbW/fOMKzcH2Ne+fBrx9D8Uvh9oPim3ZQuoWiyTRIQ3lzDiRCQedrBl444PXNXTxEKs+VJpnJjslxWX0fbVnF62fLJSs91e211trc7abJwO2ef8AOa8d+MH7Wnwm+AOvWmjePvGVt4f1S7txdQ2j2lxO7RlioY+VG20blbg817FMfk45r84/jPefHD4E+PvFPxG+Ifwn8CfFX4bXeotcXU1lbrdX+mWYAWMCSWNWVURV3fu2UkMdy7g1dPNZ2PD3R96fD34ieH/it4N07xR4Wvjqeg6ihktbtoJYfMUMVLBZFDYyp6jtWdd/GDwtZ+KLjwvbX02s+IbYK1zp+k2c149oH+59oaNWWHI5HmFcgV89/tQftSWXw2/Y50vxj8MBHFN4oitdN8MfZYVUWzTqTlYwCqtGiOAg4DqARwag+Efxc8Ffsm+F/A/gPxN4Y8VeGP8AhIJBv8Y63ZR/ZdV1OUBpZJ5PNaaOR3LYWdFbaAP4a0SV5W6OxHM+WLfVXPsD5mTqQfQj19f/AK1edfFP4++EPg/rPhfSvEl3dQX/AIj1CHTNNihsppFmnkfYimRV8teTn5mB9vT0dWBGR1x2r5I/4KBL/pX7Px44+KOjYz9ZP8n2zWevPFPq7FaWcl2PrdT70+vG/Hnxc1vT/i7oPw28LaHFdaxqWlTaxPrGqGVLG0gjcIF/dgmSRnIG3KhQc57HjfBX7TPi/wAbaF8WbCw8F2Fz8Qfh7fvZXWkR6nItpqI2M6NBKIiyswUgKydcDPOaHbV9F+hKemvl+J9McUjc14T8Bv2kG+M/7OQ+KE9hp+jOIbqWbT/trSpaNAzho5n8tSrfIDjacAjk1Y179oCXwX4T8CDxXY6ToXjLxVzDpd5qvk2dtti82VprmSMHbEpUNhSS7Ko+9kDsrX6jvue2bTxSqpFfL3w4/bCk1z4+6l8Idbt9Dv8AXn0w6ro2reGdRM9nqCKpLQPuGYZRtY9WGBnjgHmvAX7Y3xU+KsWvN4T+DEepS+HvFz6Bq0f9tqqQWyGMGSN2VfOkDFyygAIoXruzQvz1Ha3y0PsmimJyxIGBT6oArnviJ/yT/wATf9gy5/8ARTV0Nc98RP8Akn/ib/sGXP8A6KagDL+CX/JGfAX/AGALD/0njrta4r4Jf8kZ8Bf9gCw/9J467WgAooooAKKKKACiiigAooooAKKKKACiiigAooooAKKKKACiiigAooooAKKKKACmSZ28eop9Nbp0zQBwPwt/cXni+0PBj1qaQf7rBSK75a8/8F5t/iV44t+iM1rKo9zEd364r0Ba+fyN2wSh/K5L8WaVPiHUUUV9AZiUUtFACUtFFACUUtFACUjgd6dTW7Ua9AIWjCxkDpXzj+z6T8LfjF48+F0w8nT2l/4SHRI24H2aZsSRKP7scmAP9419ISMRH8vXtkV86/tT2s3gfWvBnxasUct4avRb6miDJk0+c7JcjuVyCPQnPauPEXio1I9Py6n0uStYiVXL5v8AjKy/xrWP3vT5n0HNJ9mheRtzKgLNtBJx34HJ/Cvnq3/bR+DfxL8G6jB4f8QR+KNTukmsk8Jw2kn9qXkmChhFoyh8NwCzDYAcsQATX0Dp95FqdpBc28iy288YkRkOQykZBB759aLPR7GxvLi5t7K3t7mfmaaKFVeU/wC0wGT+NdT99X7nzf8ADfKt1/Vj4N+Mn7Lnifwd+xF8L9H0+wfX9f8Ahxqdn4ivNLs8zPchJJJLmGIfxlDLwOpWMgcnno/22tW8OftQ/APwx4M8A6tZeJvEvibVrG50uOwlEsttGpJmuZUXLQrHGzKxbBBYKeTX2633QR254qpaaXZWdxcTW9rBBNcHdNJDGFMh9WI6n61W9/N3/r7iY+7byVj5i+LH/BP/AMK/GPxpceKtU+IXxD0a9uYYIXtNB1mK3tF8qJYwVRoHIJ2ZPzdSa88/bfbQPhf4d/Zp8M3Gv7k0Xxzoh87VrlWvGtbdWRriU8AkfKWfaBu68E192D7tVdRuYbGzkuZ3WOGJS7szbQAAc/5NKUrtSfR3+4cYtpRW9rffofIXx2+PNlpP7UXhXwF438Snwf8ACq88OyasmoR3RtYdavRIVFvJdKQRGsYLbEYb2ZVOcqp5f9hzxJ4Xs/2lv2hdD0iJdGW/1WxuNM0gWD2ji2S2cmUQlQY4/mQ5YAZdR1YZ+vPBvjXwr8VLFtS0K8sdetbG6aDz4sSiOZQMhW7HBByOoNZ3xobxxpPw51u++Fek6JqHjo+WbWDWgUt5/nUOHZXQlgm7blgN2MnsVFx0a2d/x6mtWlUpzdKpHlatddmj5o8N/CPxJ8Of2rvF3w70qzH/AAqbx00fjWdlO1LKWGVftNuoxjE0vkgqP4GNaH7c2rat8Ivid8IPjOmhXXiLwh4VlvrHxFbWkPmyQWt2kaCbb0wCrcnAztBI3Zr3P4FeF/G8NpdeJ/ifNo7+OtVhiils9ASQWWn20e4pBGZCzFi7yO7E8s2OQgNeqSqroVYAqeCCOCPeiS5VFR3Rj8TlzddDwD4R/tTfDr43azGnw3kGs6TYwSXGs60+nTWdtpsYQ7IzJMiAyFiDtXICKxOPlz5n/wAE3PFej61/wvG1sdVtL26b4iatfCO3nDl4JDGEmUd0YqQGHBxX2Jp+m2mkwiCztorWAEkRQoEUE9TgVbUc1StGTa6hK8k0+9x1FJS0DCue+In/ACT/AMTf9gy5/wDRTV0Nc98RP+Sf+Jv+wZc/+imoAy/gl/yRnwF/2ALD/wBJ467WuK+CX/JGfAX/AGALD/0njrtaACiiigAooooAKKKKACiiigAooooAKKKKACiiigAooooAKKKKACiiigAooooAKa3b606mt6UCOA00fZvjPqkX/P1pMVx+T7P6V3615/qf+h/GTRZf+fvTZrf/AL5bf/Wu+jbcc+ozXz2U2TxEO1SX6G1ToSUUUV9CZBRRRQAUUUUAFFFFABRRRQAlY3jLw5ZeLvC+qaJqMInstQtpLaaM/wASupUj64NbVRzfdpNXVmXCpKlJVIOzWqPnL9mf4hJ4T+HWv+FfGGpxWt/4Anewu7q5cKps1BNvKc9imF9flFVbX4yfFb4zRST/AA18J2GkeG3kK2/iLxJM3+kIDy8cCjcAccE8V0HxC/ZS8O/Ev4qW/i7U7u4Fi8ESX+ixYFvqDxE+U8v94ANjH+yvpXtlrbR2dvFbQoscMSCNETAVQBgDFeZTpVrezb5Yx7bvzPtMZmOVxk8ZQpKpWqWbUk+Wm+tkn7zb110S0szwz4M/FjxPp3jfUvhx8TbiB/FcKteaZqEMXlQ6pankbcKBvTkFR079Nze8mQL8zEAdz0/OvMPjn8FU+LGi2c+n339heLNIuVvNH1hFy1tICMg/3kYAgjpyPSuFm+BXxX8ZWrWni74wXEWmy/LPp+g6ZFasw7gTcsM8j8fpVqVai/ZWcuz/AMzmqUcuzJRxirxoN6Ti1LfvBRT0fZtWfkdR8Rf2nvC3g3WG0DS4b3xj4rx/yBdAhNxKh4/1rL8qDp15Gehrim+GvxG/aEu42+JJ/wCEL8DIwkXwnptyJZ7zByPtU68bfRFx7gGvZvhn8JPCfwp0gWHhnR4dNQ8yyYLTTN/fkdvmYn1Ndo3Y/wBav2M6v8d6dlovn1f4LyMf7Tw2X+7llP3v+fk9ZesV8MfJ6tfzI+XItHs/2Yf2gNMGl2i6d8P/AByiWDW8XyQ2mpIP3RA/h8xeMd2ya+hfFni7R/Beh3Gr69qNvpemwDc9zdSBFAxngnqfYZz0xWB8bfhhafGD4c6p4cnma0uJQJLO8UfNbXC8xyDHPDenYkV5v4R/ZVTUNUtNd+Kev3PxE12ABoYbpfL0+2I6eXAOCfUt9cDvnCNWg3Spq6e3l5f5HXUr4DNKNPF4+s41Irlkkm5VLfC09k7aNt9E7M564/bDvJ9e0XU7PwdeWvwtub1NPn8Val+6ZnkyEljiOD5IOMvyCD/DjB+obdlmjBQ7gRwxFcv8Qvh7pfxE8A6v4WvrdBYX9q1vgIB5Z/gYdsqQCPcCvIPgD8crLRfA934Z+IOt2Oj+J/CM50q9fULlIfORM+VKC3UMmMN/EVJqoynRnavLfr+hjicPh8ywrrZdRcHTdnG7k3F7S9b6Oyttoj6Hzt68KvJbpXj3xA/ay+H3gG7bTxqUniLWkbadL0GP7XP1x/CdoOexOa4Tx18RL79pbX2+Hnw51Fh4YQK3iTxRZk7REeRbQt0LuOpHQA9s17d8OfhZ4X+GGlpY+HNDtdLjCKryRxjzJcd3f7zN7nnj6VSqTqytSV13f6GTwOFyynGeZJupLamnZpdHNu9r/wAtr21bR1lpMJVUqCFKgj/DryeP1FWKQoNvpmk8pK71tqfL3Td2TVz3xE/5J/4m/wCwZc/+imroa574if8AJP8AxN/2DLn/ANFNSAy/gl/yRnwF/wBgCw/9J467WuK+CX/JGfAX/YAsP/SeOu1oAKKKKACiiigAooooAKKKKACiiigAooooAKKKKACiiigAooooAKKKKACiiigApGpaa/bnFJ7AefeNsW/xC8D3HYTXMB+rxgf0r0BGziuC+KlvNb2OkaxDA9yNJ1CO7nWLl/JGdxA79Rx6ZrsdF1O11jT4LyylWa2mQFGU549Pb6V87gpRpZhiaD3bjJeaas395tPZF+ikor6MxFooooAKKKKACiiigAooooAKKKKAEopaKACkoooAWkpaKAEx7UjMFxmnUyToP60CI/mYnIrz3xJ8BPAHi7xI/iDXPCmm6nqjosb3F3AshZV+7kEHOM16Ln34oIHXNTOMZ/EdFDEVsPJzoTcW9NHa5keHfC+keFLMWWi6XZ6VZjnyLKFYk/75UAVrr9488emKNvsDSqeelVpayMZSlOTlJtt99R9JS0UCCue+In/JP/E3/YMuf/RTV0Nc98RP+Sf+Jv8AsGXP/opqAMv4Jf8AJGfAX/YAsP8A0njrta4r4Jf8kZ8Bf9gCw/8ASeOu1oAKKKKACiiigAooooAKKKKACiiigAooooAKKKKACiiigAooooAKKKKACiiigApGpaa1ICOSMOpBGQRg5rzx/BviHwrqVw/hG509NOuiZHstSD7IX7mPZzg88V6NSf8A6q8vF4CljGpTupLZrdf8AuMnE85m8XeLfCjLceI9MtL3TD/rLjRhIWg92RuSOvNb0HxI8MTRJKNd08Kwzh7hQw9iCeD7V1DKG4IyP0rBm8D+H5nYvoenMWzuY2keST74rz/qmY4dNYesprtPW3o1b8S7we6Nm2uoruFJoZFlhcbldGBUj1BqVeDnoK8w0++Pwl1k6XfSkeGbslrG4bJFq/UxMfQ8kY9K0R8ZfD32hFDXLWZbyzqP2dltlb0LH1/pSo53howSxc1Ca0cXvfy7rsw9m91segfyoqvZzx3UazRSLLG4yrI2QR7GrHavooyjJJxd0+pk1YXNFZuoa9p2kNGL29t7Xe21POlClj6DNX4mDcg5BGe1RCtTqNqErtASUUUlbiFooooAjnYLHk4Huegr5J8df8FIPh/4F1AzTeE/Hmp+DEuTZv43stDJ0bzA5QmOd2TzAGDAlAfu/KDX1hqdnFqGn3NrOpaGaNo3UHBKspBAPbg9a8X/AGqJND8I/sx+L9JfTIrizutIbQdL0aCLf588y+Ra28Sf3i7IAB0wD/DWcpKKuyox5nY7qf4reErf4bt4/fX7SPweLD+0/wC195WLyCu4Ng9yCOMZJIGM4Fcnof7Q2mXereFrPXfD2ueEIPFWRoV5rCQLFesELrEfLlZoJWTLiOUKSAR1DAfG/wC0Z4B1n4L/ALE3wE+EmoXG6bUPE+l6brIU5R98kk7w57qshUZ77K9m/wCCoU7aL+yqmt2j/ZdS0PX9L1CwnXgxTJKArL6Y3GrkrXfS9vyv+ZC1su6b/wAvyPr9W4UnpjnsK8j+OX7RWnfA/WvA2najoGral/wlmtW2iWt3aLGIIJZXwPMLNu4AZuF6Kea66P4neF9OtrVNW8R6PpV7JbxzSWt5fxQyJuUN8yMwx1r5u/b0vINS/wCGebm1lS4t5PiforwyxuGR1JkIIIPII7jsacrxnGPS6X3hDWN/Jv7lc+wIsbeBgEk8Hjrn+tO+9XjHxE8XePH+Kui+FdAtR4f8Ito82qat40ubXz4oHV9qW0e5hGrnBdmcN8uPl5yPLvg/8fviH8YvD/xm8O+H9V8Nap4w8D6kLbSNdjtGksNXidWkh3xpMNrMFKlkfAJ3Y4wY01a6foKOsVfrb8T64C4bPtSgba+af2bf2jtS+Kn7L+oePfEN3Y2nibTRewara2dkyLYXUDMBAYTIzMceWwUsC3mAYFanjL42eIfhppfw48L+JLixb4geK1ma5ubHSrm5trRIIhJcOttEzSSlS0cagMBl9x4Ug1Zaef6j11v0PoGnL0r5T+GHx3+Ic37QGpfD3UtMvPE/hK80577SPGR8N3enR21wAxNrd7wEYfKdrJtzlRySccb8H/jd+0f8b4fFh8PxeCLR/Cvjm40W9ku4pliurWExLJHBhmIZQXcs5yfMUDpSjq/x/QqVo38nY+4KKjiz3/r179etSVQgrnviJ/yT/wATf9gy5/8ARTV0Nc98RP8Akn/ib/sGXP8A6KagDL+CX/JGfAX/AGALD/0njrta4r4Jf8kZ8Bf9gCw/9J467WgAooooAKKKKACiiigAooooAKKKKACiiigAooooAKKKKACiiigAooooAKKKKACiiigAooooAKRqWkoAqalplpqlv5V7aw3cOc+XMgYZ9cGibT7ae0a1kgja3ZdhiKArt9MVbzQawlQpTvzRTuO7PMr3w1qfw6mbUvDKSX2kFt9xom7Owd2g9D/s0y48d3/j7Gm+EUktww/0rVLiPC2o/ugd3/wr00+/So47eOHd5aKu47jtGM185LKKlN+zw1Vwoy3j/wDIv7Kf/DWNFUv6nD2vwf8ADyWs8d3avqN1cIVkvbyRpJWJ6sCeFPcYqj4d8YDwPcTeHfE115ZtV3WOoTdLmDouT/fHcV6Tzx0JqpeaTZai0bXdnDdGM5jM0asV9xmtJ5THDuFTLbU5R8tJLz7+u4+e+kjhrr4onXv9D8IWcur3jHabqRGjtovVmZsE9uPf2xVZpPGHgRv7R1C7/wCEn09/nvIYoyslufWID7yjnj9BXpiRrGoVVCgDAAGAKV1+XnpUyyzFVv3tfENzW3LpFf8Abt3f5t+Qc8VoloYGj+OtA1xYmstVtJXkHyx+aA49QV6g10CiuX134c+HtcgmW40q2SWUEfaIY1SUHHUMO/14rL8A69d6deT+Ftbfdqlkube4YYF1B/CwPqM4P+Oa1p4vE4WvGhjYx5ZfDJPS/Zp7eWrE4pq6Oz1a/j0vTrm8mjnlit42laO1heaVgozhY0BZzxwqgk9K+F1/ay1jWviNJ4n8S/s5/GnUYtKlkTw7p0PhGQw2qEFTdPlgWuXGRnGI0YqpO52k+7pGHGTgVy9n8S/DV7qsthHq9v8Aao38sq+UUt6KTwx+lerWxdDCySrTSctk9/kSlJrQ+bvjX4T8W/tgfsvxa1aeENS8G+L9K1iLX/D2g66vk3rNavhVmUkCN5R523kAZjyRyaZ+0RZ3P7YPhPwH8P8AQ9I1izsbvWLTVfFUuo6dPaDS7OEFnt3aRVDTs+FVVLfdLdME/XsbgrkHI7dDTunSuxNfZd1e5N+h8+fE39hP4HfGbxjeeLPF3gcatr14kaz3f9rXtuGWONY0+SKZUACIoGAOleaftleD5PD+j/ADw14O8I+ItV0rwr4x0q9eDRdLvdQWx0+1Vky8qJIflBUcktgHANfZu405Tuou7xs7a3JS0aetz45+OnibVrH9qzwW3jDwx4k8RfB19BaWwttI0a5voP7Z80lWu7eNGZmEeAgdcKzBsAqWWr+yLda/pv7Tn7QDaz4I8R6AviLVLLULN7zT9tukK27ZLzgmIt8yDYrFsk8fKxH2jxXCfHDw/wCNfE3w01bTfh34mtvB/i+byzZateWi3MURDgsGRlYYZQVztOM5wanSCu+z/Fjtey9PwPnTT/gTrXhb9tLXo9DuIU+G/i62t/Fuuaap5h1K2lCx4GeBNLiUnHz+VJz8tX/21vC/j/w344+GHxl+HmgT+ML3wTPdR6p4etATcXdjcoqSeUACSwCH7oJ5U4IBFel/B3S5fhdp8/8AwsL4hWni3x/qhj/tPVpI4rRcRgiOCOJMBI49zkcDcZHb+LA9hsb611KES2txDcR9A0Lhx+YrBYqhUmqdOopSj0TK5XeTezPCPg7+0Zq3x01CO90z4d+LvB/hjT45J9Tu/FmmC2lnkCFVt7SJXZ5Tu+dm28bAMZcAcR/wT8tNV0f/AIXJaaz4c1/QJtQ8dalrNmdZ0a7slubSYoI5EaaNFOSjfKPmHevrjNKG5rqTUW2upD1SXYdRRRTGFc98RP8Akn/ib/sGXP8A6KauhrnviJ/yT/xN/wBgy5/9FNQBl/BL/kjPgL/sAWH/AKTx12tcV8Ev+SM+Av8AsAWH/pPHXa0AFFFFABRRRQAUUUUAFFFFABRRRQAUUUUAFFFFABRRRQAUUUUAFFFFABRRRQAUUUUAFFFFABRRRQAUUUUAFFFFABRRRQAUUUUAMckdK5zxd4Ls/FUcDySy2d7bMTbXtq+2SJvY+ntXS4pG6cVy4nD0sVTdOqrpjT5dTy660Xx3qgTQLu5tzpr8Ta1Adkzxd1KdmORz6A113/CBaC2i2+lyaXbzWcC7UR4wSPUg9ifUV0XP1oryaGT4am5OpepfT33zadvJf0y+d9Dz3/hXuqeG2L+FNaktYgcjTdQzNbfRT95R9KcrfEoD/V+Gd3c77g/0r0ACjFT/AGNSjL9zOcF2jLT7ne3yHzvqcB9s+I9qPMksvD94q/8ALG3lmR2+hbj86d/wnfiZP3b+B7zzh1C3URT8GHFd7RjFN5XXj8GLml/26/ziLnX8pwJ8beLSCR4FuPp/aEQJ/OoF8M+JvGjCTxDfnRtPPTS9Nk+Yj/ppL34zwvH5V6Lz9KKj+yXW0xdeVSPZ8qT9eWKb+Y/aW2Ry+m/Dnw3pdr9nh0a1aNuGM0YlZvqzZNY2rfDg6LN/a3hDbpmpR8tagkW90vXYy9B25Hp2616FSMuetdVXKMFUgoxpqLWzSs16CjOaerPN4PiNr2qJ9l03wnef2og2zfbCIreFh1O4/eH0/wD1zQ+B9d16VZ/EuvSNGGDLp+lZhg4OcMTy9eg5Hal/nXLTymUrfW60qlunwq3orX+dxuemiGxjb8o6AU6l+tG6vf5dElokZHivxl1a8u/i58KfCJeaPQdam1K51COKRoxcfZ7XdFCzLzjc5kx3MQrL+Flxr/xV/ZT1S0nuzf67d2utaLbXd3KQbjyp7m0gkkcAnLLHGzPgnkmvW/FXgvTPGCWJ1CKTz7C4+02d1bTPBNbybGQsjowIJR3T3DkGvPfi9q7fBn4X+HdG8Iwx6Qt7rGmeHLN418xbKO4uUiaXDA72CFjls5YhjnnNJ8quP4rHD/A/Xfjb4F+H3hDwdf8AwVso49D0O105dQTxjbmKQ28UUXKLCShfBZQNwAVgWGF3ejjx18WP+iU6f/4Vcf8A8j0fBnxlqGreMPiX4W1C4kvz4W1iK2tbybHmvbzWkNwiOQBuZGldd3UgKTk5J9WB5q33F5HlX/Cd/Fj/AKJTp/8A4Vcf/wAj0f8ACd/Fj/olOn/+FXH/API9er0UAeUf8J38WP8AolOn/wDhVx//ACPR/wAJ38WP+iU6f/4Vcf8A8j16vRQB5R/wnfxY/wCiU6f/AOFXH/8AI9Mk8cfFdl5+FengDnjxVGT/AOk4r1qoLxS9u6q7RMQQHQAspIxkZBGfqMVMtFcD55+EA+LHw18C22gN8L9Jnkhuby5eWHxPGgdp7qa4YkeR1zLz6kk967UeO/ix/wBEp0//AMKuP/5Hpf2a/FGr+LvhDpuo67qEmq6q11qMMt3KkaNIIr2aNMhFVeERR8oxxXqcPOap6SEnc8s/4Tv4sf8ARKdP/wDCrj/+R6P+E7+LH/RKdP8A/Crj/wDkevV6KBnlH/Cd/Fj/AKJTp/8A4Vcf/wAj0f8ACd/Fj/olOn/+FXH/API9er0UAeUf8J38WP8AolOn/wDhVx//ACPTZPHXxXZcN8KtOA9f+EqjP6fZ+a9ZqrqS3D2M6WkqwXTIyxSum9UcggMVyMgHkjPIBpAfPXwrt/it8PLPxGrfCzR5LrWtf1DW55YfE8aM5nmJjEh+z/OyRLFHu/uoo7V2/wDwnfxYz/ySnT//AAq4/wD5Hql8KbLxXovxW8X6TeeK9S8Y+FrWxs3W81iK3Wa21FzIZoEaCKMFPK8iQqVyplGDggD2TvTegkeU/wDCd/Fj/olOn/8AhVx//I9H/Cd/Fj/olOn/APhVx/8AyPXq9FAzyj/hO/ix/wBEp0//AMKuP/5Ho/4Tv4sf9Ep0/wD8KuP/AOR69XooA8o/4Tv4sf8ARKdP/wDCrj/+R6RvHXxYKn/i1On/AIeK48n6f6PxXrFRzswj+UfMTgcZA9zyOBSA+efBb/Fvwz408fa2fhlpcqeJdRtr9Yl8URqYvLsoLYhj5Byf3Fdn/wAJ38WP+iU6f/4Vcf8A8j1g+APFGoaf+0d4m8I3ni/WNWtzosOox6frmneSnn+cVlksplgjWSBVeJWAZ8My8/er3MdTTegHlX/Cd/Fj/olOn/8AhVx//I9H/Cd/Fj/olOn/APhVx/8AyPXq9FAHlH/Cd/Fj/olOn/8AhVx//I9H/Cd/Fj/olOn/APhVx/8AyPXq9FAHlH/Cd/Fj/olOn/8AhVx//I9I/jv4r7efhTp//hVxn/23r1io5j8tAHzzo7fFvS/i14p8Wt8M9Mkj1fSNM01LceKIwU+yy3sjNnyP4jefpXZf8J38WP8AolOn/wDhVx//ACPXFah8bZ9V/aI8DaNpXiKxTwtdPqdjNaRSxtLeXEEa/Mc8qqyFlUfxFXbptr6Hhbcx75yc9qlfDzdxP3Zch5d/wnfxY/6JTp//AIVcf/yPR/wnfxY/6JTp/wD4Vcf/AMj16vRVDPKP+E7+LH/RKdP/APCrj/8Akej/AITv4sf9Ep0//wAKuP8A+R69XooA8o/4Tv4sf9Ep0/8A8KuP/wCR6D47+K/f4VaeP+5qjP8A7bivV6jmGQOM89KAPnq+k+Ld78XtD8Yr8MdLEGm6HqOk+QfFEe9mubiyl37vI4AFnjHv7V2P/Cd/Fj/olOn/APhVx/8AyPXJ/F7xV4s8P/Frww97ceJNB+HL3NpZf2toMunywTXssu1Y76OaCSZIXJjiV4WXDSEMVLKw9+hzuOev40o6xuD0djy7/hO/ix/0SnT/APwq4/8A5Ho/4Tv4sf8ARKdP/wDCrj/+R69XopgeUf8ACd/Fj/olOn/+FXH/API9H/Cd/Fj/AKJTp/8A4Vcf/wAj16vRQB5R/wAJ38WP+iU6f/4Vcf8A8j0jeO/ivxn4U6fjP/Q1x/8AyPXrFMk4AJ9aBnzp4uh+K/iT4heBvETfC/SQnh2S8l8qTxPGWaSe3MAdD9n+VgGcZ9GYd67VfHXxX3HHwq049h/xVcfPPPH2euP+K/x0l0D4mato0kerWfg7wno8Gt+JtT0iJGmVZ5JFjjOfnWJUhlkkaL95jbt717/Y3EN5DFPBIssEkavGykYKkAgjHqCP0pR1jcT0djzL/hOvix/0SnTv/Crj/wDkeoLz4hfFm1tJpl+EdpcmNGfyLbxVCZZMAnageFVLHoAzKM9WA5r16imBDDv3EMAP/wBfb2/x7VNRRQAVy/xH8F6f4+8LyaTqRmjjE8N5DcWzBZreeCRZoZUJBAZXjU8gg4IIIJFFFJjW5U+G3gux8K6ff38Ek11qOvXR1XUby42+ZNMyIo+6qgKkaRxqAOFQZyck9j/FRRVMiO7HUUUUigooooAKguwzxiNXMZkJXeoBK/KeRkEZ+oIoopPYa3OT+Fvw7tPhX4Sg8O2GoX2pWkNxdXCzaiYjLulneVwfKjRcbpGx8ueetdl/FRRTl0Ij1FooooKCiiigAqpqtvJeabdQQ3U1jLJEyJdW4QyQkggOu9WXcOo3KRxyDRRSewHB/C/4T3fw3mk83x54m8V25hKpa62unqkbuwZ5c21pC0kjFeXkZzyx6sSfRWoopvdAKKT1oooAFpe9FFAkLTZF3KRnaezDGRRRQM8x+GHhl7zVn8Qa1q994h1nTRcaTa3d8kCNHCzRPJxDFGpZzHFkkf8ALNcAZbd6f2NFFADacKKKhALRRRVgFQ3H3B9f6E0UUnsNbnnWo/APwRefEXw54sj0KxstX0h7qeJrWzgQTSyqoMkp8vczKfmU5GDzzXo8a7TjOeOpoop9CXuSUUUUDCiiigAqKYnMa9Az8/gCf6UUUAecah4Vm1zxzHFqWvalfaJMbbUE0OVbcWsM0JDoVZYRKw3xq5DyN8wyMdK9JUAOQOwoooAfRRRQAUUUUAFRXDbYHb+6CaKKT2A8s8ffCPSPFfiK9vJrm9sv+EnsP7A1mG0aMJe2ieYVV9yMwIEkq5Uj5ZX74I9Os7WLT447aBBHBHGERF6KoAAAHYAAUUU1sBaooooAKKKKAP/Z;" vertex="1" parent="1">
          <mxGeometry x="240" y="240" width="422.87" height="280" as="geometry" />
        </mxCell>
        <mxCell id="QVjNYzSkNJbPLTkImdrc-3" value="&lt;font style=&quot;font-size: 14px&quot;&gt;训练轮次 (1e4)&lt;/font&gt;" style="text;html=1;resizable=0;autosize=1;align=center;verticalAlign=middle;points=[];fillColor=none;strokeColor=none;rounded=0;" vertex="1" parent="1">
          <mxGeometry x="396.43" y="530" width="110" height="20" as="geometry" />
        </mxCell>
        <mxCell id="QVjNYzSkNJbPLTkImdrc-4" value="&lt;font style=&quot;font-size: 14px&quot;&gt;训练误差 (%)&lt;/font&gt;" style="text;html=1;resizable=0;autosize=1;align=center;verticalAlign=middle;points=[];fillColor=none;strokeColor=none;rounded=0;rotation=270;" vertex="1" parent="1">
          <mxGeometry x="175" y="370" width="100" height="20" as="geometry" />
        </mxCell>
      </root>
    </mxGraphModel>
  </diagram>
</mxfile>
